<?xml version="1.0" encoding="UTF-8" standalone="no"?>
<!-- Created with Inkscape (http://www.inkscape.org/) -->

<svg
   width="75.107758mm"
   height="35.043713mm"
   viewBox="0 0 75.107757 35.043713"
   version="1.1"
   id="svg5"
   inkscape:export-filename="/home/tom/stars.png"
   inkscape:export-xdpi="96"
   inkscape:export-ydpi="96"
   sodipodi:docname="browsers.svg"
   inkscape:version="1.1.2 (0a00cf5339, 2022-02-04)"
   xmlns:inkscape="http://www.inkscape.org/namespaces/inkscape"
   xmlns:sodipodi="http://sodipodi.sourceforge.net/DTD/sodipodi-0.dtd"
   xmlns="http://www.w3.org/2000/svg"
   xmlns:svg="http://www.w3.org/2000/svg">
  <sodipodi:namedview
     id="namedview7"
     pagecolor="#ffffff"
     bordercolor="#666666"
     borderopacity="1.0"
     inkscape:pageshadow="2"
     inkscape:pageopacity="0.0"
     inkscape:pagecheckerboard="0"
     inkscape:document-units="mm"
     showgrid="false"
     inkscape:zoom="1.2810466"
     inkscape:cx="346.20131"
     inkscape:cy="100.69891"
     inkscape:window-width="1920"
     inkscape:window-height="1011"
     inkscape:window-x="0"
     inkscape:window-y="0"
     inkscape:window-maximized="1"
     inkscape:current-layer="layer1" />
  <defs
     id="defs2">
    <style
       id="style9849">.a{fill:none;stroke:#000;stroke-linecap:round;stroke-linejoin:round;}</style>
    <style
       id="style9881">.cls-1{fill:none;stroke:#000;stroke-linecap:round;stroke-linejoin:round;}</style>
  </defs>
  <g
     inkscape:label="Layer 1"
     inkscape:groupmode="layer"
     id="layer1"
     transform="translate(65.88436,15.68592)">
    <g
       inkscape:export-filename="/home/tom/PORTFOLIO/wachstum_web/src/img/browsers.webp"
       inkscape:export-xdpi="96"
       inkscape:export-ydpi="96"
       id="g10163"
       style="stroke-width:0.991702;stroke-miterlimit:4;stroke-dasharray:none"
       transform="matrix(2.7966718,0,0,2.7966718,177.16368,-25.994392)">
      <circle
         class="a"
         cx="-66.234444"
         cy="10.011099"
         r="5.6885414"
         id="circle9853"
         style="stroke-width:0.991702;stroke-miterlimit:4;stroke-dasharray:none" />
      <circle
         class="a"
         cx="-66.186821"
         cy="10.016391"
         r="2.1298959"
         id="circle9855"
         style="stroke-width:0.991702;stroke-miterlimit:4;stroke-dasharray:none" />
      <line
         class="a"
         x1="-66.234444"
         y1="7.8812032"
         x2="-60.958652"
         y2="7.8812032"
         id="line9857"
         style="stroke-width:0.991702;stroke-miterlimit:4;stroke-dasharray:none" />
      <line
         class="a"
         x1="-68.030968"
         y1="11.074724"
         x2="-70.668861"
         y2="6.5053701"
         id="line9859"
         style="stroke-width:0.991702;stroke-miterlimit:4;stroke-dasharray:none" />
      <line
         class="a"
         x1="-64.342674"
         y1="11.080016"
         x2="-66.980568"
         y2="15.64937"
         id="line9861"
         style="stroke-width:0.991702;stroke-miterlimit:4;stroke-dasharray:none" />
    </g>
    <path
       class="cls-1"
       d="m -48.92829,17.998292 c -3.888268,0 -15.596556,-2.655028 -15.596556,-16.176875 a 12.890739,12.890739 0 0 1 5.926677,-10.8668195 10.34451,10.34451 0 0 0 0.522303,3.9607863 h 0.05072 a 12.796434,12.796434 0 0 1 3.714167,-2.9016756 9.5102752,9.5102752 0 0 0 -0.188633,1.8207964 8.1392286,8.1392286 0 0 0 0.232226,1.9151116 2.4301619,2.4301619 0 0 1 0.355441,0.3119289 8.0957033,8.0957033 0 0 0 1.907874,1.639457 c 1.799027,0.9865942 3.075778,1.58141697 3.075778,1.58141697 0,0 -0.86324,1.73377323 -1.915112,1.73377323 -4.279982,0 -5.135984,2.7856184 -5.135984,2.7856184 0,0 0.86324,5.7525761 6.927772,5.7525761 2.234307,0 6.659383,-1.2332119 6.659383,-6.4054691 a 6.4054713,6.4054713 0 0 0 -3.358727,-5.7163055 5.3753729,5.3753729 0 0 1 4.076873,1.1824374 8.284313,8.284313 0 0 0 -7.254205,-4.2799836 h -0.507799 a 11.476167,11.476167 0 0 1 5.382631,-8.661546 17.598724,17.598724 0 0 0 2.713072,4.142154 c 1.893343,2.1762647 4.352529,4.7224998 5.339093,7.3775286 a 17.620487,17.620487 0 0 0 -1.501602,-4.6136793 c 0,0 4.171164,2.4446806 4.171164,9.9165288 A 15.734391,15.734391 0 0 1 -48.92829,17.998292 Z"
       id="path9885"
       inkscape:export-filename="/home/tom/PORTFOLIO/wachstum_web/src/img/browsers.webp"
       inkscape:export-xdpi="96"
       inkscape:export-ydpi="96"
       style="stroke-width:2.719;stroke-miterlimit:4;stroke-dasharray:none" />
  </g>
</svg>
