<?xml version="1.0" encoding="UTF-8" standalone="no"?>
<!-- Created with Inkscape (http://www.inkscape.org/) -->

<svg
   width="210mm"
   height="297mm"
   viewBox="0 0 210 297"
   version="1.1"
   id="svg10530"
   inkscape:version="1.1.2 (0a00cf5339, 2022-02-04)"
   sodipodi:docname="drawing.svg"
   xmlns:inkscape="http://www.inkscape.org/namespaces/inkscape"
   xmlns:sodipodi="http://sodipodi.sourceforge.net/DTD/sodipodi-0.dtd"
   xmlns="http://www.w3.org/2000/svg"
   xmlns:svg="http://www.w3.org/2000/svg">
  <sodipodi:namedview
     id="namedview10532"
     pagecolor="#ffffff"
     bordercolor="#666666"
     borderopacity="1.0"
     inkscape:pageshadow="2"
     inkscape:pageopacity="0.0"
     inkscape:pagecheckerboard="0"
     inkscape:document-units="mm"
     showgrid="false"
     inkscape:snap-text-baseline="false"
     inkscape:zoom="1.8116734"
     inkscape:cx="294.47912"
     inkscape:cy="833.48354"
     inkscape:window-width="1920"
     inkscape:window-height="1011"
     inkscape:window-x="0"
     inkscape:window-y="0"
     inkscape:window-maximized="1"
     inkscape:current-layer="layer1" />
  <defs
     id="defs10527" />
  <g
     inkscape:label="Layer 1"
     inkscape:groupmode="layer"
     id="layer1">
    <rect
       style="fill:none;stroke:#000000;stroke-width:2.84519;stroke-linejoin:round;stroke-miterlimit:4;stroke-dasharray:none;stroke-opacity:1"
       id="rect10613"
       width="55.823448"
       height="31.400688"
       x="72.242851"
       y="190.22337" />
    <path
       class="cls-1"
       d="m 46.46926,221.97659 c -3.88827,0 -15.59656,-2.65503 -15.59656,-16.17687 a 12.890739,12.890739 0 0 1 5.92668,-10.86682 10.34451,10.34451 0 0 0 0.5223,3.96078 h 0.0507 a 12.796434,12.796434 0 0 1 3.71417,-2.90167 9.5102752,9.5102752 0 0 0 -0.18863,1.82079 8.1392286,8.1392286 0 0 0 0.23222,1.91512 2.4301619,2.4301619 0 0 1 0.35544,0.31193 8.0957033,8.0957033 0 0 0 1.90788,1.63945 c 1.79903,0.9866 3.07578,1.58142 3.07578,1.58142 0,0 -0.86324,1.73377 -1.91512,1.73377 -4.27998,0 -5.13598,2.78562 -5.13598,2.78562 0,0 0.86324,5.75258 6.92777,5.75258 2.23431,0 6.65939,-1.23322 6.65939,-6.40547 a 6.4054713,6.4054713 0 0 0 -3.35873,-5.71631 5.3753729,5.3753729 0 0 1 4.07687,1.18244 8.284313,8.284313 0 0 0 -7.2542,-4.27998 h -0.5078 a 11.476167,11.476167 0 0 1 5.38263,-8.66155 17.598724,17.598724 0 0 0 2.71307,4.14215 c 1.89334,2.17627 4.35253,4.7225 5.33909,7.37753 a 17.620487,17.620487 0 0 0 -1.5016,-4.61368 c 0,0 4.17116,2.44468 4.17116,9.91653 a 15.734391,15.734391 0 0 1 -15.59655,15.50224 z"
       id="path9885"
       style="fill:none;stroke:#000000;stroke-width:2.719;stroke-linecap:round;stroke-linejoin:round;stroke-miterlimit:4;stroke-dasharray:none"
       inkscape:export-filename="/home/tom/PORTFOLIO/wachstum_web/src/img/browsers.webp"
       inkscape:export-xdpi="96"
       inkscape:export-ydpi="96" />
    <text
       xml:space="preserve"
       style="font-style:normal;font-variant:normal;font-weight:normal;font-stretch:normal;font-size:21.2494px;line-height:1.25;font-family:sans-serif;-inkscape-font-specification:'sans-serif, Normal';font-variant-ligatures:normal;font-variant-caps:normal;font-variant-numeric:normal;font-variant-east-asian:normal;fill:#000000;fill-opacity:1;stroke:none;stroke-width:0.531237"
       x="78.267387"
       y="213.3499"
       id="text12666"><tspan
         sodipodi:role="line"
         id="tspan12664"
         style="font-style:normal;font-variant:normal;font-weight:normal;font-stretch:normal;font-size:21.2494px;font-family:sans-serif;-inkscape-font-specification:'sans-serif, Normal';font-variant-ligatures:normal;font-variant-caps:normal;font-variant-numeric:normal;font-variant-east-asian:normal;stroke-width:0.531237"
         x="78.267387"
         y="213.3499">16:9</tspan></text>
  </g>
</svg>
