<?xml version="1.0" encoding="UTF-8" standalone="no"?>
<!-- Created with Inkscape (http://www.inkscape.org/) -->

<svg
   width="86.327293mm"
   height="85.96431mm"
   viewBox="0 0 86.327293 85.96431"
   version="1.1"
   id="svg26611"
   inkscape:version="1.2-alpha1 (b6a15bb, 2022-02-23)"
   sodipodi:docname="kapitalus_prev.svg"
   xmlns:inkscape="http://www.inkscape.org/namespaces/inkscape"
   xmlns:sodipodi="http://sodipodi.sourceforge.net/DTD/sodipodi-0.dtd"
   xmlns:xlink="http://www.w3.org/1999/xlink"
   xmlns="http://www.w3.org/2000/svg"
   xmlns:svg="http://www.w3.org/2000/svg">
  <sodipodi:namedview
     id="namedview26613"
     pagecolor="#ffffff"
     bordercolor="#666666"
     borderopacity="1.0"
     inkscape:pageshadow="2"
     inkscape:pageopacity="0.0"
     inkscape:pagecheckerboard="0"
     inkscape:deskcolor="#d1d1d1"
     inkscape:document-units="mm"
     showgrid="false"
     inkscape:zoom="1.393294"
     inkscape:cx="55.264718"
     inkscape:cy="77.51415"
     inkscape:window-width="1920"
     inkscape:window-height="1011"
     inkscape:window-x="0"
     inkscape:window-y="0"
     inkscape:window-maximized="1"
     inkscape:current-layer="layer1" />
  <defs
     id="defs26608">
    <linearGradient
       inkscape:collect="always"
       id="linearGradient227199">
      <stop
         style="stop-color:#256274;stop-opacity:1;"
         offset="0"
         id="stop227195" />
      <stop
         style="stop-color:#a94db2;stop-opacity:1;"
         offset="1"
         id="stop227197" />
    </linearGradient>
    <linearGradient
       inkscape:collect="always"
       id="linearGradient28594">
      <stop
         style="stop-color:#493f76;stop-opacity:1;"
         offset="0"
         id="stop28590" />
      <stop
         style="stop-color:#341c9b;stop-opacity:1;"
         offset="1"
         id="stop28592" />
    </linearGradient>
    <linearGradient
       inkscape:collect="always"
       xlink:href="#linearGradient28594"
       id="linearGradient28596"
       x1="94.645035"
       y1="158.11949"
       x2="181.90834"
       y2="158.11949"
       gradientUnits="userSpaceOnUse"
       gradientTransform="translate(0,0.13427795)" />
    <radialGradient
       inkscape:collect="always"
       xlink:href="#linearGradient227199"
       id="radialGradient227201"
       cx="137.33821"
       cy="160.88407"
       fx="137.33821"
       fy="160.88407"
       r="38.533618"
       gradientTransform="matrix(1,0,0,0.96684473,0,5.3341557)"
       gradientUnits="userSpaceOnUse" />
  </defs>
  <g
     inkscape:label="Layer 1"
     inkscape:groupmode="layer"
     id="layer1"
     transform="translate(-95.153243,-115.27162)">
    <path
       id="path26784"
       style="fill:url(#linearGradient28596);stroke:none;stroke-width:1.299;stroke-linecap:round;stroke-linejoin:round"
       d="m 181.25884,158.25377 c 0.79945,5.88051 -0.61736,11.87731 -3.37775,16.73059 -2.73415,4.80715 -5.32231,9.77326 -9.21143,13.66238 -3.88912,3.88913 -8.66588,5.76025 -13.66238,9.21144 -4.59401,3.17318 -10.79599,3.37775 -16.73059,3.37775 -5.9346,0 -10.63837,-2.01941 -16.7306,-3.37775 -5.44956,-1.21505 -9.77326,-5.32231 -13.66238,-9.21143 -3.88912,-3.88912 -7.83408,-8.25156 -9.211427,-13.66238 -1.442782,-5.66789 -4.169113,-10.849 -3.37775,-16.7306 0.772099,-5.73843 1.202737,-11.58828 3.377752,-16.73059 2.175015,-5.14232 4.878535,-10.27468 9.211435,-13.66238 2.64731,-2.06981 8.54774,-6.97211 13.66238,-9.21143 4.82631,-2.11308 10.79599,-3.37775 16.73059,-3.37775 5.9346,0 11.82777,0.70635 16.73059,3.37775 5.84289,3.18361 10.06229,5.10155 13.66238,9.21143 3.64759,4.16411 7.19652,8.45524 9.21143,13.66238 1.92079,4.96392 2.48586,10.17014 3.37775,16.73059 z"
       sodipodi:nodetypes="sssssssssssssssss" />
    <g
       id="g227112"
       style="stroke:none;fill-opacity:1;fill:url(#radialGradient227201)">
      <path
         id="path202882"
         style="font-variation-settings:'wght' 300;fill:url(#radialGradient227201);stroke-width:0.850862;stroke-linecap:round;stroke-linejoin:round;stroke:none;fill-opacity:1"
         d="m 154.74052,135.45274 c -0.21633,3.33709 8.3519,6.96995 3.02946,13.02918 -2.20341,2.50842 -11.14549,1.43479 -12.93614,-1.96622 -4.25225,-8.0764 -7.86614,3.67803 -12.77518,-0.66382 -2.50089,-2.21194 0.68218,-7.36999 -1.97185,-10.65602 -2.10119,-2.60155 -8.83208,-8.35293 -6.04892,-10.19718 5.88834,-3.90187 9.26127,1.67163 11.66749,2.60295 8.98395,-0.005 15.75458,-5.55063 19.80947,-2.45336 2.51883,2.19149 -0.51429,6.29324 -0.77433,10.30447 z"
         sodipodi:nodetypes="ssssssccs" />
      <path
         id="path202882-2"
         style="font-variation-settings:'wght' 300;fill:url(#radialGradient227201);stroke-width:0.850862;stroke-linecap:round;stroke-linejoin:round;stroke:none;fill-opacity:1"
         d="m 122.29457,148.45066 c 13.06998,5.24675 0.55565,9.41591 3.23364,13.61905 1.79404,2.81578 12.97527,9.31616 4.05564,12.74617 -8.51924,3.27604 -2.8891,3.90762 -7.31739,8.73884 -3.87595,4.22862 -15.40419,-2.31411 -18.94003,-0.003 -0.37364,0.24418 -4.125498,-5.13496 -4.521837,-8.1281 1.035031,-8.92413 5.975057,-8.53978 7.560757,-14.42866 2.52306,-17.70678 12.19892,-14.04146 15.92922,-12.54398 z"
         sodipodi:nodetypes="sssssccss" />
      <path
         id="path202882-3"
         style="font-variation-settings:'wght' 300;fill:url(#radialGradient227201);stroke-width:0.850862;stroke-linecap:round;stroke-linejoin:round;stroke:none;fill-opacity:1"
         d="m 175.81636,178.50535 c 0.34526,-3.32623 -0.82865,-2.62901 -6.15109,-8.68824 -2.20341,-2.50842 -11.11656,-1.51416 -12.90721,1.88685 -4.25225,8.0764 -7.89507,-3.59866 -12.80411,0.74319 -2.50089,2.21194 -3.17845,6.60806 -1.97185,10.65602 2.34954,7.88234 10.12876,1.58634 12.91192,3.43059 5.88834,3.90187 -5.69872,5.26888 -0.30903,11.60634 9.21752,-5.53643 9.65893,-5.71228 13.43082,-8.75428 2.51883,-2.19149 7.62498,-9.189 7.80055,-10.88047 z"
         sodipodi:nodetypes="ssssssccs" />
    </g>
  </g>
</svg>
