<?xml version="1.0" encoding="UTF-8" standalone="no"?>
<!-- Created with Inkscape (http://www.inkscape.org/) -->

<svg
   width="160mm"
   height="160mm"
   viewBox="0 0 160.00001 160.00001"
   version="1.1"
   id="svg98200"
   inkscape:version="1.2-alpha1 (b6a15bb, 2022-02-23)"
   sodipodi:docname="radar_default.svg"
   xmlns:inkscape="http://www.inkscape.org/namespaces/inkscape"
   xmlns:sodipodi="http://sodipodi.sourceforge.net/DTD/sodipodi-0.dtd"
   xmlns="http://www.w3.org/2000/svg"
   xmlns:svg="http://www.w3.org/2000/svg">
  <sodipodi:namedview
     id="namedview98202"
     pagecolor="#ffffff"
     bordercolor="#666666"
     borderopacity="1.0"
     inkscape:pageshadow="2"
     inkscape:pageopacity="0.0"
     inkscape:pagecheckerboard="0"
     inkscape:deskcolor="#d1d1d1"
     inkscape:document-units="mm"
     showgrid="false"
     showguides="true"
     inkscape:zoom="0.69664703"
     inkscape:cx="142.82699"
     inkscape:cy="265.55773"
     inkscape:window-width="1920"
     inkscape:window-height="1011"
     inkscape:window-x="0"
     inkscape:window-y="0"
     inkscape:window-maximized="1"
     inkscape:current-layer="layer1">
    <sodipodi:guide
       position="-91.289733,119.94361"
       orientation="0,-1"
       id="guide107175" />
    <sodipodi:guide
       position="79.946934,268.71644"
       orientation="1,0"
       id="guide109999" />
    <sodipodi:guide
       position="40.018531,241.07687"
       orientation="1,0"
       id="guide111817" />
    <sodipodi:guide
       position="-250.95853,79.967395"
       orientation="0,-1"
       id="guide113485" />
    <sodipodi:guide
       position="99.902798,125.22202"
       orientation="1,0"
       id="guide122825" />
    <sodipodi:guide
       position="119.99198,117.50325"
       orientation="1,0"
       id="guide125277" />
    <sodipodi:guide
       position="-294.12521,59.947281"
       orientation="0,-1"
       id="guide126149" />
  </sodipodi:namedview>
  <defs
     id="defs98197" />
  <g
     inkscape:label="Layer 1"
     inkscape:groupmode="layer"
     id="layer1">
    <path
       inkscape:export-filename="/home/tom/PORTFOLIO/wachstum_web/src/stars.png"
       inkscape:export-xdpi="96"
       inkscape:export-ydpi="96"
       style="fill:#eeeeee;fill-opacity:1;stroke-width:0.173831"
       d="m 158.20515,188.09749 c 0,-0.0957 0.11734,-0.17384 0.26076,-0.17384 0.14336,0 0.2607,0.0782 0.2607,0.17384 0,0.0956 -0.11734,0.17378 -0.2607,0.17378 -0.14342,0 -0.26076,-0.0782 -0.26076,-0.17378 z m -65.968845,-5.56264 c -0.0591,-0.0956 -0.0246,-0.17383 0.0767,-0.17383 0.10125,0 0.18409,0.0782 0.18409,0.17383 0,0.0956 -0.0345,0.17383 -0.0767,0.17383 -0.0422,0 -0.125,-0.0782 -0.18408,-0.17383 z M 36.87115,180.62271 c 0,-0.0956 0.07823,-0.17383 0.173835,-0.17383 0.09561,0 0.173829,0.0782 0.173829,0.17383 0,0.0956 -0.07822,0.17383 -0.173829,0.17383 -0.09561,0 -0.173835,-0.0782 -0.173835,-0.17383 z m 31.115737,-0.94995 c 0,-0.0445 0.154683,-0.16359 0.343748,-0.26478 0.280453,-0.15009 0.325043,-0.13521 0.24215,0.0808 -0.09004,0.23464 -0.585898,0.39034 -0.585898,0.18397 z m 84.047263,-0.4407 c 0.0591,-0.0956 0.14191,-0.17383 0.18409,-0.17383 0.0421,0 0.0767,0.0782 0.0767,0.17383 0,0.0956 -0.0829,0.17383 -0.1841,0.17383 -0.1013,0 -0.1358,-0.0782 -0.0767,-0.17383 z m -33.81012,-0.18409 c 0,-0.10125 0.0782,-0.13574 0.17383,-0.0767 0.0956,0.0591 0.17383,0.14194 0.17383,0.1841 0,0.0422 -0.0782,0.0767 -0.17383,0.0767 -0.0956,0 -0.17383,-0.0828 -0.17383,-0.18409 z M 5.2339271,178.00499 c 0,-0.10126 0.07822,-0.13574 0.173829,-0.0767 0.09561,0.0591 0.173828,0.14193 0.173828,0.18409 0,0.0422 -0.07822,0.0767 -0.173828,0.0767 -0.09561,0 -0.173829,-0.0829 -0.173829,-0.18409 z M 161.76155,177.82986 c -0.0631,-0.10197 -0.0773,-0.22268 -0.0315,-0.26826 0.0453,-0.0455 0.12917,0.0379 0.1858,0.1854 0.11754,0.30632 0.0171,0.36018 -0.15407,0.0829 z m 50.00837,-0.6676 c -0.17482,-0.10867 -0.1831,-0.17914 -0.0322,-0.27259 0.23856,-0.14742 0.41766,-0.0169 0.32936,0.23999 -0.0361,0.10521 -0.15893,0.11866 -0.29743,0.0326 z M 33.48145,176.45077 c 0.05906,-0.0956 0.141932,-0.17383 0.184091,-0.17383 0.04218,0 0.07665,0.0782 0.07665,0.17383 0,0.0956 -0.08284,0.17383 -0.184091,0.17383 -0.101243,0 -0.135742,-0.0782 -0.07665,-0.17383 z m 144.01889,0.0205 c 0,-0.0956 0.0782,-0.22217 0.17385,-0.28125 0.0956,-0.0591 0.17384,-0.0292 0.17384,0.0664 0,0.0956 -0.0782,0.22217 -0.17384,0.28126 -0.0956,0.0591 -0.17385,0.0292 -0.17385,-0.0664 z m 22.77191,-1.41115 c 0,-0.0956 0.0736,-0.17384 0.16353,-0.17384 0.0899,0 0.21194,0.0782 0.27101,0.17384 0.0591,0.0956 -0.0145,0.17383 -0.16359,0.17383 -0.14901,0 -0.27095,-0.0782 -0.27095,-0.17383 z M 59.12151,174.19095 c -0.14341,-0.0927 -0.221632,-0.17569 -0.173829,-0.18447 0.04783,-0.009 0.210765,-0.0403 0.362144,-0.0699 0.151379,-0.0297 0.275237,0.0545 0.275237,0.18713 0,0.28271 -0.106329,0.29814 -0.463552,0.0673 z m -63.7090309,-0.17383 c 0.059064,-0.0956 0.1419315,-0.17383 0.1840911,-0.17383 0.042179,0 0.076652,0.0782 0.076652,0.17383 0,0.0956 -0.082841,0.17383 -0.184091,0.17383 -0.1012435,0 -0.1357426,-0.0782 -0.076652,-0.17383 z m -3.2158709,-1.83548 c 0,-0.14905 0.079497,-0.22188 0.176667,-0.16182 0.097164,0.06 0.1316625,0.182 0.076652,0.27101 -0.1490139,0.2411 -0.253319,0.19614 -0.253319,-0.10919 z M 17.22826,169.49752 c 0,-0.0956 0.07822,-0.17383 0.173829,-0.17383 0.09561,0 0.173829,0.0782 0.173829,0.17383 0,0.0956 -0.07822,0.17383 -0.173829,0.17383 -0.09561,0 -0.173829,-0.0782 -0.173829,-0.17383 z m 92.30422,-1.21682 c 0,-0.0956 0.0828,-0.17383 0.18409,-0.17383 0.10125,0 0.13575,0.0782 0.0767,0.17383 -0.0591,0.0956 -0.14193,0.17383 -0.18409,0.17383 -0.0422,0 -0.0767,-0.0782 -0.0767,-0.17383 z m 60.96143,-3.58778 c -0.13889,-0.13888 0.0177,-0.41033 0.23731,-0.41033 0.0899,0 0.16359,0.11733 0.16359,0.26074 0,0.26882 -0.20511,0.34535 -0.4009,0.14959 z m 64.68573,-0.52908 c 0.12549,-0.0502 0.27542,-0.044 0.33317,0.0137 0.0578,0.0577 -0.0447,0.0988 -0.22811,0.0913 -0.20255,-0.008 -0.24375,-0.0495 -0.10506,-0.10502 z m -24.99906,-2.48871 c 0,-0.0956 0.0782,-0.17383 0.17384,-0.17383 0.0956,0 0.17384,0.0782 0.17384,0.17383 0,0.0956 -0.0782,0.17382 -0.17384,0.17382 -0.0956,0 -0.17384,-0.0782 -0.17384,-0.17382 z m 42.41472,-0.86916 c 0,-0.0956 0.0783,-0.17383 0.17384,-0.17383 0.0956,0 0.17385,0.0782 0.17385,0.17383 0,0.0956 -0.0782,0.17383 -0.17385,0.17383 -0.0956,0 -0.17384,-0.0782 -0.17384,-0.17383 z m -11.82046,-2.43363 c 0,-0.0956 0.0829,-0.17383 0.18409,-0.17383 0.10125,0 0.13574,0.0782 0.0766,0.17383 -0.0591,0.0956 -0.14191,0.17383 -0.18409,0.17383 -0.042,0 -0.0766,-0.0782 -0.0766,-0.17383 z m -99.2547,-0.95275 c -0.18902,-0.2277 -0.17299,-0.26133 0.10426,-0.21903 0.3536,0.0539 0.54222,0.34695 0.27975,0.43444 -0.0884,0.0295 -0.26122,-0.0675 -0.38401,-0.21541 z m 15.81586,-3.39303 c 0,-0.0956 0.0829,-0.17383 0.18409,-0.17383 0.10125,0 0.13574,0.0782 0.0766,0.17383 -0.0591,0.0956 -0.14191,0.17384 -0.18409,0.17384 -0.042,0 -0.0766,-0.0782 -0.0766,-0.17384 z m 96.21537,-0.17383 c 0.0591,-0.0956 0.14197,-0.17382 0.18409,-0.17382 0.042,0 0.0767,0.0782 0.0767,0.17382 0,0.0956 -0.0829,0.17383 -0.18409,0.17383 -0.10125,0 -0.13574,-0.0782 -0.0767,-0.17383 z m -131.32926,-1.56447 c 0,-0.0956 0.0782,-0.17383 0.17384,-0.17383 0.0956,0 0.17385,0.0782 0.17385,0.17383 0,0.0956 -0.0782,0.17383 -0.17385,0.17383 -0.0956,0 -0.17384,-0.0782 -0.17384,-0.17383 z m -74.051948,-0.75327 c 0,-0.12748 0.109876,-0.23178 0.244173,-0.23178 0.134298,0 0.20415,0.1043 0.155236,0.23178 -0.04895,0.12748 -0.158797,0.23177 -0.244173,0.23177 -0.08538,0 -0.155236,-0.10429 -0.155236,-0.23177 z m 91.087398,0.0477 c 0,-0.10125 0.0782,-0.13575 0.17385,-0.0767 0.0956,0.0591 0.17384,0.14193 0.17384,0.18409 0,0.0422 -0.0782,0.0767 -0.17384,0.0767 -0.0956,0 -0.17385,-0.0828 -0.17385,-0.18409 z m 106.49109,-0.0216 c 0.0499,-0.0812 0.16412,-0.10269 0.25314,-0.0477 0.22739,0.14056 0.20183,0.19538 -0.0913,0.19538 -0.13922,0 -0.21201,-0.0665 -0.16182,-0.1477 z m -139.51896,-3.27093 c 0,-0.0956 0.0782,-0.17383 0.17384,-0.17383 0.0956,0 0.17383,0.0782 0.17383,0.17383 0,0.0956 -0.0782,0.17383 -0.17383,0.17383 -0.0956,0 -0.17384,-0.0782 -0.17384,-0.17383 z M 43.215977,147.9425 c -0.05906,-0.0956 -0.02457,-0.17384 0.07666,-0.17384 0.10125,0 0.184091,0.0782 0.184091,0.17384 0,0.0956 -0.03449,0.17383 -0.07666,0.17383 -0.04218,0 -0.125,-0.0782 -0.184091,-0.17383 z m 97.606103,-1.47756 c -0.18068,-0.21764 -0.15637,-0.26075 0.14703,-0.26075 0.2517,0 0.33277,0.0802 0.26346,0.26075 -0.0552,0.1434 -0.12122,0.26074 -0.1471,0.26074 -0.0256,0 -0.14441,-0.11734 -0.26339,-0.26074 z m 21.3949,-2.10046 c 0.009,-0.20251 0.0493,-0.2437 0.10499,-0.10502 0.0499,0.12548 0.044,0.27541 -0.0138,0.33317 -0.0578,0.0577 -0.0988,-0.0449 -0.0913,-0.22815 z m 30.059,0.0144 c 0,-0.28056 0.15926,-0.32215 0.59419,-0.15523 0.42318,0.16239 0.32587,0.41597 -0.15958,0.41597 -0.27042,0 -0.43461,-0.0985 -0.43461,-0.26074 z M 65.826464,142.07567 c 0.08653,-0.0717 0.215706,-0.2086 0.287056,-0.3042 0.07404,-0.0992 0.130875,-0.0432 0.132399,0.13037 0.0013,0.1691 -0.126013,0.30421 -0.287063,0.30421 -0.159342,0 -0.218918,-0.0587 -0.132392,-0.13038 z m 78.037646,-0.56495 c -0.0591,-0.0956 -0.0289,-0.17383 0.0664,-0.17383 0.0957,0 0.22219,0.0782 0.28126,0.17383 0.0591,0.0956 0.0289,0.17383 -0.0664,0.17383 -0.0957,0 -0.2222,-0.0782 -0.28126,-0.17383 z m -127.939585,-2.4336 c -0.05906,-0.0956 -0.02457,-0.17383 0.07666,-0.17383 0.10125,0 0.184091,0.0782 0.184091,0.17383 0,0.0956 -0.03449,0.17383 -0.07666,0.17383 -0.04218,0 -0.125,-0.0782 -0.184091,-0.17383 z m 75.18187,-0.93747 c 0,-0.16491 0.52034,-0.24801 0.61311,-0.0979 0.0565,0.0914 -0.0584,0.16625 -0.25518,0.16625 -0.19686,0 -0.35793,-0.0308 -0.35793,-0.0683 z m 13.819565,-0.97467 c -0.0591,-0.0956 -0.0246,-0.17383 0.0767,-0.17383 0.10125,0 0.18409,0.0782 0.18409,0.17383 0,0.0956 -0.0345,0.17383 -0.0767,0.17383 -0.0422,0 -0.125,-0.0782 -0.18409,-0.17383 z m -20.251305,-1.60794 c 0,-0.0717 0.195562,-0.13037 0.434578,-0.13037 0.239016,0 0.434579,0.0587 0.434579,0.13037 0,0.0717 -0.195563,0.13038 -0.434579,0.13038 -0.239016,0 -0.434578,-0.0587 -0.434578,-0.13038 z m -95.896727,-0.20964 c 0,-0.13921 0.06517,-0.21281 0.144862,-0.16357 0.07967,0.0492 0.144862,0.16314 0.144862,0.2531 0,0.09 -0.06517,0.16357 -0.144862,0.16357 -0.07967,0 -0.144862,-0.1139 -0.144862,-0.2531 z m 226.302482,-1.84374 c 0.0421,-0.12548 0.17877,-0.26237 0.30426,-0.3042 0.13034,-0.0434 0.19552,0.0217 0.15209,0.1521 -0.042,0.12549 -0.1787,0.26238 -0.30419,0.30421 -0.13041,0.0434 -0.19559,-0.0218 -0.15216,-0.15211 z m -88.86013,-3.11809 c 0,-0.0956 0.0736,-0.17382 0.16352,-0.17382 0.09,0 0.21195,0.0782 0.27102,0.17382 0.0591,0.0956 -0.0145,0.17383 -0.1636,0.17383 -0.149,0 -0.27094,-0.0782 -0.27094,-0.17383 z m -158.980827,-1.05575 c 0,-0.18419 0.06143,-0.3349 0.136583,-0.3349 0.07511,0 0.136577,0.11273 0.136577,0.25049 0,0.13777 -0.06143,0.28848 -0.136577,0.3349 -0.07512,0.0465 -0.136583,-0.0663 -0.136583,-0.25049 z m 241.977897,0.17503 c -0.0631,-0.10196 -0.0773,-0.22267 -0.0315,-0.26824 0.0453,-0.0455 0.12916,0.0378 0.1858,0.1854 0.11753,0.30631 0.0177,0.36018 -0.15407,0.0828 z m 54.85079,0.0116 c 0,-0.0956 0.0782,-0.17383 0.17384,-0.17383 0.0956,0 0.17385,0.0782 0.17385,0.17383 0,0.0956 -0.0783,0.17383 -0.17385,0.17383 -0.0956,0 -0.17384,-0.0782 -0.17384,-0.17383 z M 26.566197,129.23571 c -0.06195,-0.0619 -0.03995,-0.24854 0.04895,-0.41461 0.08888,-0.16607 0.105685,-0.36206 0.03732,-0.43552 -0.06834,-0.0735 -0.0069,-0.0952 0.136491,-0.0483 0.14341,0.0469 0.234654,0.23362 0.202763,0.41492 -0.07111,0.4042 -0.274133,0.63489 -0.425525,0.4835 z M 242.1071,127.00758 c -0.0519,-0.13587 0.0177,-0.34056 0.15558,-0.45486 0.20426,-0.1695 0.25045,-0.14169 0.25045,0.15086 0,0.43794 -0.27548,0.6442 -0.40603,0.304 z M 88.846595,125.51831 c 0,-0.0956 0.0782,-0.17383 0.17383,-0.17383 0.0956,0 0.17384,0.0782 0.17384,0.17383 0,0.0956 -0.0782,0.17383 -0.17384,0.17383 -0.0956,0 -0.17383,-0.0782 -0.17383,-0.17383 z m 101.691105,-0.0103 c 0,-0.10125 0.0782,-0.13575 0.17384,-0.0767 0.0956,0.0591 0.17384,0.14193 0.17384,0.18409 0,0.0422 -0.0783,0.0767 -0.17384,0.0767 -0.0957,0 -0.17384,-0.0828 -0.17384,-0.18409 z M 34.959014,124.12767 c 0,-0.0956 0.0736,-0.17383 0.163567,-0.17383 0.08997,0 0.211921,0.0782 0.271005,0.17383 0.05906,0.0956 -0.01452,0.17383 -0.163566,0.17383 -0.149054,0 -0.271006,-0.0782 -0.271006,-0.17383 z m -14.080304,-2.2598 c 0,-0.0956 0.08284,-0.17384 0.184091,-0.17384 0.101243,0 0.135742,0.0782 0.07665,0.17384 -0.05906,0.0956 -0.141932,0.17383 -0.184091,0.17383 -0.04218,0 -0.07665,-0.0782 -0.07665,-0.17383 z m 7.213977,-0.17384 c -0.05906,-0.0956 -0.02457,-0.17383 0.07666,-0.17383 0.10125,0 0.184091,0.0782 0.184091,0.17383 0,0.0956 -0.03449,0.17384 -0.07666,0.17384 -0.04218,0 -0.125,-0.0782 -0.184091,-0.17384 z m -46.499769,-0.69532 c 0,-0.0956 0.156451,-0.17383 0.347664,-0.17383 0.191213,0 0.347664,0.0782 0.347664,0.17383 0,0.0956 -0.156451,0.17383 -0.347664,0.17383 -0.191213,0 -0.347664,-0.0782 -0.347664,-0.17383 z m 254.222302,-0.35639 c -0.15965,-0.25833 -0.0328,-0.34978 0.24631,-0.17738 0.14947,0.0924 0.16721,0.18195 0.0506,0.25413 -0.0992,0.0613 -0.23277,0.0268 -0.2967,-0.0768 z m -189.5572,-0.68659 c -0.210851,-0.13627 -0.185898,-0.16902 0.130374,-0.17117 0.215115,-0.001 0.391118,0.0756 0.391118,0.17117 0,0.21779 -0.184472,0.21779 -0.521492,0 z m 180.26264,-0.33741 c 0,-0.09 0.065,-0.20386 0.14487,-0.2531 0.0797,-0.0493 0.14487,0.0244 0.14487,0.16357 0,0.13921 -0.065,0.25311 -0.14487,0.25311 -0.0796,0 -0.14487,-0.0736 -0.14487,-0.16358 z m -61.27538,-0.53175 c -0.0591,-0.0956 -0.0243,-0.17383 0.0767,-0.17383 0.10125,0 0.18409,0.0782 0.18409,0.17383 0,0.0956 -0.0348,0.17383 -0.0767,0.17383 -0.042,0 -0.12502,-0.0782 -0.18409,-0.17383 z m -79.179976,-0.34766 c 0,-0.0956 0.07822,-0.17383 0.173831,-0.17383 0.0956,0 0.17383,0.0782 0.17383,0.17383 0,0.0956 -0.0782,0.17383 -0.17383,0.17383 -0.0956,0 -0.173831,-0.0782 -0.173831,-0.17383 z m -75.790285,-0.70558 c 0,-0.10125 0.07823,-0.13575 0.173836,-0.0767 0.09561,0.0591 0.173828,0.14193 0.173828,0.18409 0,0.0422 -0.07822,0.0767 -0.173828,0.0767 -0.09561,0 -0.173836,-0.0828 -0.173836,-0.18409 z m 174.004761,-0.16358 c 0,-0.0956 0.0736,-0.17382 0.1636,-0.17382 0.0899,0 0.21188,0.0782 0.27094,0.17382 0.0591,0.0956 -0.0145,0.17383 -0.16353,0.17383 -0.14907,0 -0.27101,-0.0782 -0.27101,-0.17383 z m 85.91593,0.058 c -0.11951,-0.0478 -0.21727,-0.16323 -0.21727,-0.25652 0,-0.0933 0.0782,-0.12125 0.17384,-0.0621 0.0956,0.0591 0.17378,0.0246 0.17378,-0.0767 0,-0.10125 0.12312,-0.18409 0.2735,-0.18409 0.16189,0 0.25058,0.11826 0.21727,0.28979 -0.0618,0.31867 -0.28651,0.42348 -0.62112,0.28964 z m 1.52101,-2.6654 c 0,-0.0956 0.0829,-0.17383 0.1841,-0.17383 0.10124,0 0.13573,0.0782 0.0767,0.17383 -0.0591,0.0956 -0.14198,0.17383 -0.18409,0.17383 -0.0421,0 -0.0767,-0.0782 -0.0767,-0.17383 z M 7.8993321,114.48775 c 0,-0.1392 0.06646,-0.21202 0.147693,-0.16182 0.08123,0.0502 0.102695,0.1641 0.0477,0.25311 -0.140565,0.22743 -0.195378,0.20183 -0.195378,-0.0913 z M 231.30105,114.21931 c 0.0591,-0.0956 0.22016,-0.17383 0.35793,-0.17383 0.13778,0 0.25045,0.0782 0.25045,0.17383 0,0.0956 -0.16103,0.17383 -0.35793,0.17383 -0.19684,0 -0.30958,-0.0782 -0.25045,-0.17383 z m -283.82134,-0.48804 c 0.04796,-0.125 0.200851,-0.18367 0.339747,-0.13037 0.138889,0.0533 0.285242,0.0969 0.325227,0.0969 0.04001,0 0.0727,0.0587 0.0727,0.13037 0,0.0717 -0.185595,0.13037 -0.412444,0.13037 -0.268206,0 -0.381946,-0.0795 -0.325227,-0.22728 z m 131.980017,-0.73905 c 0,-0.10125 0.07822,-0.13574 0.173829,-0.0767 0.09561,0.0591 0.173835,0.14192 0.173835,0.18408 0,0.0422 -0.07823,0.0767 -0.173835,0.0767 -0.09561,0 -0.173829,-0.0828 -0.173829,-0.18409 z m 18.252248,-0.17383 c 0,-0.10125 0.0782,-0.13575 0.17383,-0.0767 0.0956,0.0591 0.17383,0.14194 0.17383,0.1841 0,0.0422 -0.0782,0.0767 -0.17383,0.0767 -0.0956,0 -0.17383,-0.0828 -0.17383,-0.18409 z m 9.908365,-0.0664 c 0,-0.13778 0.0782,-0.29884 0.17383,-0.35793 0.0956,-0.0591 0.17384,0.0536 0.17384,0.25049 0,0.19685 -0.0782,0.35792 -0.17384,0.35792 -0.0956,0 -0.17383,-0.11272 -0.17383,-0.25048 z m 53.53992,-0.53176 c 0,-0.14341 0.0782,-0.26074 0.17384,-0.26074 0.0956,0 0.17384,0.11733 0.17384,0.26074 0,0.14341 -0.0782,0.26075 -0.17384,0.26075 -0.0956,0 -0.17384,-0.11734 -0.17384,-0.26075 z m 25.03165,-1.22707 c 0,-0.14906 0.0795,-0.22187 0.17667,-0.16182 0.0972,0.0601 0.13166,0.182 0.0767,0.271 -0.14901,0.24111 -0.25334,0.19616 -0.25334,-0.10918 z m -87.610775,-0.42432 c 0,-0.0956 0.0828,-0.17383 0.18409,-0.17383 0.10124,0 0.13574,0.0782 0.0767,0.17383 -0.0591,0.0956 -0.14193,0.17383 -0.18409,0.17383 -0.0422,0 -0.0767,-0.0782 -0.0767,-0.17383 z m 19.124055,-0.89812 c 0.004,-0.3227 0.2851,-0.7355 0.37801,-0.55454 0.14039,0.27345 0.0564,0.64063 -0.16338,0.71388 -0.11951,0.0398 -0.21609,-0.0319 -0.21463,-0.15934 z M 10.014276,109.52586 c -0.05906,-0.0956 -0.02457,-0.17383 0.07665,-0.17383 0.10125,0 0.184091,0.0782 0.184091,0.17383 0,0.0956 -0.03449,0.17383 -0.07665,0.17383 -0.04218,0 -0.125,-0.0782 -0.184091,-0.17383 z m 70.140773,-0.79249 c 0,-0.14906 0.07823,-0.22267 0.173835,-0.16358 0.09561,0.0591 0.173829,0.18105 0.173829,0.27101 0,0.09 -0.07822,0.16357 -0.173829,0.16357 -0.09561,0 -0.173835,-0.12195 -0.173835,-0.271 z m -41.10926,-0.60099 c 0.06005,-0.0972 0.182009,-0.13166 0.271006,-0.0767 0.241112,0.14902 0.196153,0.25333 -0.109187,0.25333 -0.149053,0 -0.221868,-0.0795 -0.161819,-0.17667 z m 3.909445,-0.58697 c 0,-0.0376 0.117334,-0.11335 0.260743,-0.16838 0.143417,-0.0551 0.26075,-0.0243 0.26075,0.0683 0,0.0926 -0.117333,0.16837 -0.26075,0.16837 -0.143409,0 -0.260743,-0.0307 -0.260743,-0.0683 z m 14.254133,-0.45318 c 0,-0.0956 0.08284,-0.17383 0.184091,-0.17383 0.101251,0 0.13575,0.0782 0.07666,0.17383 -0.05906,0.0956 -0.141931,0.17383 -0.184091,0.17383 -0.04218,0 -0.07666,-0.0782 -0.07666,-0.17383 z m 47.861453,-0.60076 c 0,-0.13921 0.0652,-0.21282 0.14486,-0.16357 0.0797,0.0493 0.14486,0.16314 0.14486,0.2531 0,0.09 -0.0652,0.16357 -0.14486,0.16357 -0.0797,0 -0.14486,-0.1139 -0.14486,-0.2531 z m 104.50138,-0.0946 c -0.0591,-0.0956 -0.0243,-0.17383 0.0766,-0.17383 0.10125,0 0.1841,0.0782 0.1841,0.17383 0,0.0956 -0.0348,0.17383 -0.0766,0.17383 -0.042,0 -0.12503,-0.0782 -0.18409,-0.17383 z M 66.34667,106.17212 c 0.0653,-0.17144 0.162475,-0.26791 0.215994,-0.21439 0.05355,0.0535 1.12e-4,0.19379 -0.118686,0.3117 -0.171681,0.1704 -0.191647,0.15043 -0.09731,-0.0973 z m 197.37385,-0.64437 c 0,-0.0956 0.0782,-0.17383 0.17385,-0.17383 0.0956,0 0.17377,0.0782 0.17377,0.17383 0,0.0956 -0.0782,0.17384 -0.17377,0.17384 -0.0957,0 -0.17385,-0.0782 -0.17385,-0.17384 z m -145.21169,-0.95607 c -0.0603,-0.15723 -0.002,-0.26074 0.14977,-0.26074 0.15067,0 0.21011,0.10351 0.14978,0.26074 -0.0551,0.14342 -0.12243,0.26075 -0.14978,0.26075 -0.0273,0 -0.0947,-0.11733 -0.14977,-0.26075 z m -4.89133,-0.60841 c -0.0591,-0.0956 -0.0246,-0.17383 0.0767,-0.17383 0.10124,0 0.18408,0.0782 0.18408,0.17383 0,0.0956 -0.0345,0.17384 -0.0767,0.17384 -0.0422,0 -0.125,-0.0782 -0.1841,-0.17384 z m -55.799725,-0.69532 c -0.05907,-0.0956 -0.02457,-0.17383 0.07666,-0.17383 0.10125,0 0.184091,0.0782 0.184091,0.17383 0,0.0956 -0.03449,0.17383 -0.07666,0.17383 -0.04218,0 -0.125001,-0.0782 -0.184091,-0.17383 z m 199.992455,-0.35792 c 0,-0.10125 0.0783,-0.13575 0.17384,-0.0767 0.0956,0.0591 0.17384,0.14193 0.17384,0.18409 0,0.0422 -0.0783,0.0767 -0.17384,0.0767 -0.0956,0 -0.17384,-0.0828 -0.17384,-0.18409 z M 88.498935,102.74646 c 0,-0.0956 0.0828,-0.17383 0.18409,-0.17383 0.10125,0 0.13575,0.0782 0.0767,0.17383 -0.0591,0.0956 -0.14193,0.17383 -0.18409,0.17383 -0.0422,0 -0.0767,-0.0782 -0.0767,-0.17383 z m -20.058989,-0.62294 c -0.06498,-0.16929 -0.02615,-0.24876 0.100909,-0.20642 0.259849,0.0866 0.402917,0.48169 0.17444,0.48169 -0.09335,0 -0.21725,-0.12387 -0.275349,-0.27527 z m -99.963838,-1.27719 c -0.118739,-0.19212 0.155479,-0.39958 0.315991,-0.23906 0.165281,0.16527 0.134474,0.40088 -0.05243,0.40088 -0.08996,0 -0.208577,-0.0728 -0.263581,-0.16182 z m 1.049983,-2.074661 c -0.07488,-0.12115 -0.0892,-0.26723 -0.0318,-0.32461 0.155571,-0.15557 0.325195,0.0732 0.241171,0.32532 -0.05887,0.17664 -0.09983,0.1765 -0.209346,-6.6e-4 z m 124.622344,-0.19715 c -0.0591,-0.0956 -0.0246,-0.17383 0.0767,-0.17383 0.10125,0 0.18409,0.0782 0.18409,0.17383 0,0.0956 -0.0345,0.17382 -0.0767,0.17382 -0.0422,0 -0.125,-0.0782 -0.18409,-0.17382 z m 125.766695,0 c 0,-0.0956 0.0782,-0.17383 0.17384,-0.17383 0.0956,0 0.17378,0.0782 0.17378,0.17383 0,0.0956 -0.0782,0.17382 -0.17378,0.17382 -0.0957,0 -0.17384,-0.0782 -0.17384,-0.17382 z m -63.08692,-0.23178 c -0.0158,-0.3646 0.3647,-0.30851 0.46666,0.0688 0.0559,0.20657 0.0388,0.20881 -0.0984,0.0129 -0.1402,-0.20006 -0.18074,-0.20006 -0.2603,0 -0.0637,0.15944 -0.0987,0.1327 -0.10794,-0.0817 z m -70.154495,-0.11589 c -0.0591,-0.0956 0.0191,-0.17383 0.17383,-0.17383 0.15469,0 0.23291,0.0782 0.17383,0.17383 -0.0591,0.0956 -0.13731,0.17384 -0.17383,0.17384 -0.0365,0 -0.11474,-0.0782 -0.17383,-0.17384 z m -118.900352,-0.86915 c -0.05906,-0.0956 -0.02457,-0.17383 0.07665,-0.17383 0.10125,0 0.184091,0.0782 0.184091,0.17383 0,0.0956 -0.03449,0.17383 -0.07665,0.17383 -0.04218,0 -0.125001,-0.0782 -0.184091,-0.17383 z m 56.134972,-0.89813 c 0,-0.17528 0.01958,-0.31869 0.04356,-0.31869 0.02398,0 0.120303,0.14341 0.214109,0.31869 0.122478,0.22886 0.110205,0.31869 -0.04356,0.31869 -0.117754,0 -0.214103,-0.14341 -0.214103,-0.31869 z m 11.161646,-0.75327 c 0.05506,-0.14341 0.130802,-0.26074 0.168376,-0.26074 0.03758,0 0.06831,0.11733 0.06831,0.26074 0,0.14342 -0.07577,0.26075 -0.168376,0.26075 -0.0926,0 -0.123345,-0.11733 -0.06831,-0.26075 z m -55.563034,-0.53175 c 0,-0.14905 0.0795,-0.22186 0.176667,-0.16181 0.09717,0.06 0.131662,0.182 0.07666,0.271 -0.149014,0.24111 -0.253326,0.19615 -0.253326,-0.10919 z m 103.168651,-0.77198 c 0.05906,-0.0956 0.141932,-0.17382 0.184091,-0.17382 0.04218,0 0.07666,0.0782 0.07666,0.17382 0,0.0956 -0.08284,0.17383 -0.184091,0.17383 -0.10125,0 -0.135749,-0.0782 -0.07666,-0.17383 z m 133.081262,-0.79672 c 0.009,-0.20251 0.0493,-0.24369 0.10505,-0.10503 0.0499,0.12549 0.044,0.27542 -0.0138,0.33318 -0.0578,0.0577 -0.0989,-0.0449 -0.0913,-0.22815 z M 26.962788,91.968939 c 0,-0.0956 0.08284,-0.17383 0.184091,-0.17383 0.10125,0 0.135749,0.0782 0.07666,0.17383 -0.05906,0.0956 -0.141931,0.17383 -0.184091,0.17383 -0.04218,0 -0.07666,-0.0782 -0.07666,-0.17383 z m 236.010992,-1.33316 c -0.1245,-0.20149 0.16563,-0.69649 0.31864,-0.54353 0.0618,0.0618 0.0381,0.24555 -0.0532,0.40841 -0.0911,0.16286 -0.21051,0.22366 -0.26523,0.13512 z m -32.3681,-1.7958 c -0.0591,-0.0956 -0.0243,-0.17383 0.0767,-0.17383 0.10124,0 0.18409,0.0782 0.18409,0.17383 0,0.0956 -0.0348,0.17384 -0.0767,0.17384 -0.042,0 -0.12497,-0.0782 -0.1841,-0.17384 z M 84.848484,86.754009 c 0,-0.0956 0.121952,-0.17383 0.271005,-0.17383 0.149053,0 0.222663,0.0782 0.163573,0.17383 -0.05906,0.0956 -0.181043,0.17384 -0.271005,0.17384 -0.08996,0 -0.163573,-0.0782 -0.163573,-0.17384 z m -94.3875285,-0.65186 c -0.00131,-0.21512 0.075568,-0.39112 0.1711744,-0.39112 0.2177951,0 0.2177951,0.18447 0,0.52149 -0.1362615,0.21085 -0.1690195,0.1859 -0.1711744,-0.13037 z m 155.4022045,-0.0434 c 0,-0.0956 0.0828,-0.17383 0.18409,-0.17383 0.10125,0 0.13574,0.0782 0.0766,0.17383 -0.0591,0.0956 -0.14191,0.17383 -0.18409,0.17383 -0.042,0 -0.0766,-0.0782 -0.0766,-0.17383 z m -156.70684,-0.17669 c 0.06005,-0.0972 0.182002,-0.13167 0.271006,-0.0767 0.241105,0.14901 0.196147,0.25332 -0.109187,0.25332 -0.149053,0 -0.221875,-0.0795 -0.161819,-0.17666 z m 131.24059,-1.21399 c -0.0591,-0.0956 -0.0246,-0.17383 0.0767,-0.17383 0.10123,0 0.18408,0.0782 0.18408,0.17383 0,0.0956 -0.0345,0.17384 -0.0767,0.17384 -0.0422,0 -0.125,-0.0782 -0.18409,-0.17384 z m 123.08516,-0.985134 c -0.131,-0.341416 0.14993,-0.704592 0.32541,-0.420656 0.0644,0.103937 0.0361,0.188979 -0.0617,0.188979 -0.0982,0 -0.13357,0.117333 -0.0786,0.260743 0.0552,0.143416 0.0611,0.260749 0.0131,0.260749 -0.048,0 -0.13692,-0.130414 -0.19815,-0.289815 z m -35.47438,-0.405506 c -0.0591,-0.09561 -0.0243,-0.173835 0.0767,-0.173835 0.10124,0 0.18409,0.07823 0.18409,0.173835 0,0.09561 -0.0348,0.173829 -0.0767,0.173829 -0.0421,0 -0.12503,-0.07822 -0.18409,-0.173829 z M -47.154122,82.663575 c -0.05151,-0.13431 -0.01892,-0.290433 0.07253,-0.346941 0.09143,-0.0565 0.16624,-0.01531 0.16624,0.09161 0,0.106894 0.07822,0.146005 0.173829,0.08692 0.09561,-0.05907 0.173829,-0.03298 0.173829,0.05808 0,0.278719 -0.486679,0.370311 -0.586431,0.110363 z M 153.85936,82.137234 c 0,-0.149053 0.0795,-0.221869 0.17667,-0.161819 0.0972,0.06005 0.13166,0.182002 0.0767,0.271006 -0.14901,0.241111 -0.25334,0.196153 -0.25334,-0.109187 z m 4.2517,-3.564842 c -0.0631,-0.101967 -0.0728,-0.227131 -0.0217,-0.278154 0.1245,-0.124514 0.46358,0.09488 0.46358,0.299979 0,0.222151 -0.30012,0.207323 -0.44177,-0.02181 z m 91.87681,-0.336095 c 0,-0.09561 0.15643,-0.173828 0.34768,-0.173828 0.19119,0 0.34762,0.07822 0.34762,0.173828 0,0.09561 -0.15643,0.173829 -0.34762,0.173829 -0.19125,0 -0.34768,-0.07822 -0.34768,-0.173829 z m -43.80539,-1.400905 c 0,-0.10125 0.0782,-0.135749 0.17384,-0.07666 0.0956,0.05907 0.17384,0.141932 0.17384,0.184091 0,0.04218 -0.0782,0.07666 -0.17384,0.07666 -0.0957,0 -0.17384,-0.08284 -0.17384,-0.184091 z m -6.90644,-0.350555 c -0.0138,-0.183979 0.0526,-0.334511 0.14809,-0.334511 0.0953,0 0.12496,0.07822 0.0658,0.173829 -0.0591,0.09561 -0.0309,0.173835 0.0624,0.173835 0.0933,0 0.20905,-0.09778 0.25728,-0.217289 0.0661,-0.163777 0.0911,-0.165281 0.10144,-0.0059 0.007,0.116151 -0.12654,0.286235 -0.29795,0.377971 -0.24749,0.132465 -0.31687,0.09795 -0.33684,-0.167718 z m -245.669896,-0.06831 c 0,-0.155071 0.101966,-0.216159 0.259745,-0.155617 0.142864,0.05479 0.216467,0.169703 0.163573,0.25529 -0.151688,0.245435 -0.423318,0.181476 -0.423318,-0.09967 z M 109.35865,74.180243 c 0,-0.360778 0.20574,-0.479635 0.46204,-0.266925 0.33695,0.279645 0.28671,0.498701 -0.11438,0.498701 -0.19121,0 -0.34766,-0.104298 -0.34766,-0.231776 z M 58.947681,70.935399 c -0.222834,-0.144008 -0.21652,-0.168895 0.04343,-0.171168 0.167311,-0.0013 0.304203,0.07556 0.304203,0.171168 0,0.212007 -0.01958,0.212007 -0.347657,0 z m -73.008986,-0.531755 c 0,-0.101244 0.07822,-0.135743 0.173829,-0.07665 0.09561,0.05906 0.173829,0.141931 0.173829,0.184091 0,0.04218 -0.07822,0.07665 -0.173829,0.07665 -0.09561,0 -0.173829,-0.08284 -0.173829,-0.184091 z m 45.543699,-2.2598 c 0,-0.196857 0.07822,-0.309578 0.173828,-0.250488 0.09561,0.05907 0.173836,0.220154 0.173836,0.35792 0,0.137773 -0.07823,0.250488 -0.173836,0.250488 -0.09561,0 -0.173828,-0.161064 -0.173828,-0.35792 z M 248.07574,66.763457 c 0,-0.09561 0.0829,-0.173829 0.18409,-0.173829 0.10125,0 0.13574,0.07822 0.0766,0.173829 -0.0591,0.09561 -0.14191,0.173828 -0.18409,0.173828 -0.0421,0 -0.0766,-0.07822 -0.0766,-0.173828 z M -34.921015,65.884044 c 0,-0.10125 0.07822,-0.135749 0.173828,-0.07666 0.09561,0.05907 0.173829,0.141932 0.173829,0.184092 0,0.04218 -0.07822,0.07666 -0.173829,0.07666 -0.09561,0 -0.173828,-0.08284 -0.173828,-0.184091 z m 4.258856,-0.511237 c 0.05906,-0.09561 0.141932,-0.173829 0.184091,-0.173829 0.04218,0 0.07665,0.07822 0.07665,0.173829 0,0.09561 -0.08284,0.173835 -0.184091,0.173835 -0.101243,0 -0.135742,-0.07823 -0.07665,-0.173835 z M 71.811165,63.286836 c 0,-0.09561 0.08284,-0.173829 0.184091,-0.173829 0.10125,0 0.135749,0.07822 0.07666,0.173829 -0.05906,0.09561 -0.141931,0.173835 -0.184091,0.173835 -0.04218,0 -0.07666,-0.07823 -0.07666,-0.173835 z M 186.5396,63.113007 c 0,-0.09561 0.0782,-0.173828 0.17384,-0.173828 0.0956,0 0.17377,0.07822 0.17377,0.173828 0,0.09561 -0.0782,0.173829 -0.17377,0.173829 -0.0957,0 -0.17384,-0.07822 -0.17384,-0.173829 z m 39.63345,-1.216814 c 0,-0.09561 0.0782,-0.173835 0.17384,-0.173835 0.0956,0 0.17377,0.07823 0.17377,0.173835 0,0.09561 -0.0782,0.173829 -0.17377,0.173829 -0.0957,0 -0.17384,-0.07822 -0.17384,-0.173829 z M 19.736997,61.433002 c 0.05552,-0.111341 0.03265,-0.228675 -0.05072,-0.260743 -0.08338,-0.03206 -0.09974,-0.202782 -0.03633,-0.379364 0.09815,-0.273443 0.145814,-0.284218 0.321397,-0.07266 0.161313,0.194373 0.147273,0.32093 -0.06452,0.581805 -0.148876,0.183375 -0.225292,0.242301 -0.169802,0.130959 z m 10.094004,-0.05827 c 0.05906,-0.09561 0.141931,-0.173836 0.184091,-0.173836 0.04218,0 0.07665,0.07823 0.07665,0.173836 0,0.09561 -0.08284,0.173828 -0.184091,0.173828 -0.101243,0 -0.135742,-0.07822 -0.07665,-0.173828 z m 238.582929,-0.53176 c 0,-0.101251 0.0782,-0.135743 0.17384,-0.07666 0.0956,0.05906 0.17384,0.141931 0.17384,0.184091 0,0.04218 -0.0783,0.07666 -0.17384,0.07666 -0.0956,0 -0.17384,-0.08284 -0.17384,-0.184091 z M -34.747187,60.50557 c 0,-0.09561 0.07822,-0.173829 0.173829,-0.173829 0.09561,0 0.173835,0.07822 0.173835,0.173829 0,0.09561 -0.07823,0.173829 -0.173835,0.173829 -0.09561,0 -0.173829,-0.07822 -0.173829,-0.173829 z M 75.287785,59.288756 c 0,-0.193145 0.115888,-0.347664 0.26075,-0.347664 0.144855,0 0.260743,0.154519 0.260743,0.347664 0,0.193144 -0.115888,0.347657 -0.260743,0.347657 -0.144862,0 -0.26075,-0.154513 -0.26075,-0.347657 z m 55.191295,0.173828 c 0.0591,-0.09561 0.14197,-0.173828 0.18409,-0.173828 0.042,0 0.0767,0.07822 0.0767,0.173828 0,0.09561 -0.0829,0.173829 -0.18409,0.173829 -0.10125,0 -0.13574,-0.07822 -0.0767,-0.173829 z m -21.03351,-0.695321 c -0.0591,-0.09561 -0.0246,-0.173835 0.0767,-0.173835 0.10125,0 0.18409,0.07823 0.18409,0.173835 0,0.09561 -0.0345,0.173829 -0.0767,0.173829 -0.0422,0 -0.125,-0.07822 -0.18408,-0.173829 z m 135.77656,-2.148301 c 0.0605,-0.156937 0.23146,-0.285334 0.3806,-0.285334 0.14914,0 0.23856,0.02214 0.19868,0.04921 -0.0401,0.02707 -0.2111,0.155452 -0.3806,0.285335 -0.26832,0.205588 -0.29401,0.199221 -0.19868,-0.04921 z m -1.36544,-1.085684 c -0.22653,-0.226513 -0.13422,-0.416464 0.20229,-0.416464 0.18101,0 0.37837,0.128397 0.43861,0.285327 0.0886,0.230876 0.0624,0.246079 -0.13836,0.07966 -0.17647,-0.146465 -0.26622,-0.150414 -0.31181,-0.01373 -0.0348,0.105573 -0.12102,0.134915 -0.19073,0.06517 z m -35.849,-1.45945 c 0.0591,-0.09561 0.14191,-0.173835 0.18409,-0.173835 0.042,0 0.0767,0.07823 0.0767,0.173835 0,0.09561 -0.0828,0.173829 -0.18409,0.173829 -0.10124,0 -0.13574,-0.07822 -0.0767,-0.173829 z M -17.222855,52.738261 c 0.12548,-0.05019 0.275414,-0.04402 0.333177,0.01373 0.05775,0.05775 -0.04494,0.09885 -0.228156,0.0913 -0.202507,-0.0083 -0.243694,-0.04954 -0.105021,-0.105021 z M 88.759685,52.50935 c -0.0591,-0.09561 -0.0246,-0.173836 0.0767,-0.173836 0.10125,0 0.18409,0.07823 0.18409,0.173836 0,0.09561 -0.0345,0.173828 -0.0767,0.173828 -0.0422,0 -0.125,-0.07822 -0.18409,-0.173828 z M 229.13079,51.683653 c 0,-0.215121 0.0755,-0.391124 0.17121,-0.391124 0.2178,0 0.2178,0.184479 0,0.521493 -0.13626,0.21085 -0.16904,0.185904 -0.17121,-0.130369 z m 35.89342,-0.391124 c 0.0591,-0.09561 0.14197,-0.173829 0.18409,-0.173829 0.0421,0 0.0767,0.07822 0.0767,0.173829 0,0.09561 -0.0828,0.173835 -0.18409,0.173835 -0.10125,0 -0.13574,-0.07823 -0.0767,-0.173835 z m -73.44353,-0.879413 c 0,-0.10125 0.0782,-0.135742 0.17384,-0.07666 0.0956,0.05906 0.17385,0.141931 0.17385,0.184091 0,0.04218 -0.0782,0.07666 -0.17385,0.07666 -0.0957,0 -0.17384,-0.08284 -0.17384,-0.184091 z M 32.177715,50.065426 c 0,-0.101243 0.07823,-0.135742 0.173835,-0.07665 0.09561,0.05906 0.173829,0.141931 0.173829,0.184091 0,0.04218 -0.07822,0.07665 -0.173829,0.07665 -0.09561,0 -0.173835,-0.08284 -0.173835,-0.184091 z m -42.42804,-0.03318 c -0.109955,-0.359274 -0.09801,-0.669988 0.02878,-0.748348 0.08709,-0.05381 0.158344,0.102314 0.158344,0.346974 0,0.353827 -0.121755,0.614984 -0.187127,0.401374 z M 47.648669,48.86915 c 0,-0.08996 0.07733,-0.211363 0.171838,-0.269777 0.09854,-0.0609 0.127681,0.0089 0.06832,0.163573 -0.115559,0.301148 -0.240159,0.356251 -0.240158,0.106204 z m 205.051491,0.01872 c -0.0493,-0.07967 0.021,-0.144855 0.1559,-0.144855 0.13502,0 0.20518,0.06517 0.15591,0.144855 -0.0493,0.07967 -0.11938,0.144862 -0.15591,0.144862 -0.0368,0 -0.10669,-0.06518 -0.1559,-0.144862 z M -48.392913,48.163546 c -0.05906,-0.09561 0.01452,-0.173829 0.163573,-0.173829 0.149054,0 0.271006,0.07822 0.271006,0.173829 0,0.09561 -0.07361,0.173835 -0.163573,0.173835 -0.08996,0 -0.211915,-0.07823 -0.271006,-0.173835 z M 62.771959,47.989717 c 0,-0.09561 0.08284,-0.173828 0.184091,-0.173828 0.10125,0 0.135743,0.07822 0.07665,0.173828 -0.05906,0.09561 -0.141925,0.173829 -0.184084,0.173829 -0.04218,0 -0.07666,-0.07822 -0.07666,-0.173829 z M 198.02058,47.719159 c 0.25827,-0.311207 0.51332,-0.324709 0.51332,-0.0272 0,0.123062 -0.16235,0.235987 -0.36083,0.250934 -0.29565,0.02227 -0.32317,-0.01813 -0.15249,-0.223754 z m 39.97292,-1.989241 c 0,-0.09561 0.0782,-0.173836 0.17385,-0.173836 0.0956,0 0.17384,0.07823 0.17384,0.173836 0,0.09561 -0.0782,0.173828 -0.17384,0.173828 -0.0956,0 -0.17385,-0.07822 -0.17385,-0.173828 z M -13.598837,44.26236 c -0.120658,-0.314433 0.197205,-0.54977 0.429198,-0.317771 0.105514,0.105514 0.07571,0.241027 -0.08176,0.371717 -0.194524,0.161444 -0.269231,0.149842 -0.347434,-0.05394 z M 136.82391,42.253297 c 0,-0.09561 0.0782,-0.173829 0.17384,-0.173829 0.0956,0 0.17384,0.07822 0.17384,0.173829 0,0.09561 -0.0782,0.173829 -0.17384,0.173829 -0.0956,0 -0.17384,-0.07822 -0.17384,-0.173829 z M 77.113007,41.036483 c -0.05907,-0.09561 -0.02457,-0.173836 0.07666,-0.173836 0.10125,0 0.184091,0.07823 0.184091,0.173836 0,0.09561 -0.03449,0.173829 -0.07666,0.173829 -0.04218,0 -0.125001,-0.07822 -0.184091,-0.173829 z M 117.9343,35.900822 c 0,-0.139205 0.0652,-0.253102 0.14488,-0.253102 0.0797,0 0.14485,0.07361 0.14485,0.163573 0,0.08996 -0.0652,0.20386 -0.14485,0.253102 -0.0797,0.04927 -0.14488,-0.02438 -0.14488,-0.163573 z m 79.90429,0.133515 c 0,-0.106052 -0.15643,-0.162692 -0.34768,-0.125867 -0.44656,0.086 -0.45668,-0.191686 -0.0112,-0.308179 0.31858,-0.08331 0.66107,0.324656 0.44991,0.535861 -0.0499,0.05006 -0.091,0.0039 -0.091,-0.101815 z M 36.175828,35.473891 c 0,-0.09561 0.07822,-0.173829 0.173829,-0.173829 0.09561,0 0.173835,0.07822 0.173835,0.173829 0,0.09561 -0.07823,0.173829 -0.173835,0.173829 -0.09561,0 -0.173829,-0.07822 -0.173829,-0.173829 z m 3.059946,-2.810266 c 0.04928,-0.07967 0.163139,-0.144862 0.253102,-0.144862 0.08996,0 0.163573,0.06518 0.163573,0.144862 0,0.07967 -0.113897,0.144862 -0.253102,0.144862 -0.139205,0 -0.212815,-0.06517 -0.163573,-0.144862 z m -50.220939,-0.205588 c -0.128673,-0.335319 0.313704,-0.741798 0.492487,-0.452528 0.06762,0.10943 0.007,0.314854 -0.134586,0.456503 -0.227506,0.227505 -0.269252,0.227039 -0.357901,-0.0039 z m 34.645167,-1.514008 c 0,-0.10125 0.07822,-0.135749 0.173829,-0.07666 0.09561,0.05906 0.173835,0.141931 0.173835,0.184091 0,0.04218 -0.07823,0.07666 -0.173835,0.07666 -0.09561,0 -0.173829,-0.08284 -0.173829,-0.184091 z m 55.973554,-0.674803 c 0,-0.08997 0.07733,-0.21137 0.171845,-0.269777 0.09854,-0.0609 0.127674,0.0089 0.06831,0.163573 -0.115559,0.301149 -0.240159,0.356245 -0.240159,0.106204 z M 123.2651,29.147663 c 0,-0.379692 0.44695,-0.460976 0.47514,-0.08642 0.0138,0.181332 -0.0872,0.328559 -0.22515,0.328559 -0.13751,0 -0.24999,-0.108963 -0.24999,-0.242144 z m 91.6958,-0.97467 c 0.0591,-0.09561 0.14198,-0.173829 0.18409,-0.173829 0.0421,0 0.0767,0.07822 0.0767,0.173829 0,0.09561 -0.0828,0.173828 -0.18409,0.173828 -0.10124,0 -0.13573,-0.07822 -0.0767,-0.173828 z M 80.763462,27.477671 c 0.05906,-0.09561 0.141925,-0.173835 0.184085,-0.173835 0.04218,0 0.07666,0.07823 0.07666,0.173835 0,0.09561 -0.08284,0.173829 -0.184092,0.173829 -0.10125,0 -0.135742,-0.07822 -0.07665,-0.173829 z M 7.4285391,26.817506 c -0.04717,-0.07627 -0.0161,-0.251289 0.06897,-0.388931 0.116623,-0.188703 0.147456,-0.154598 0.125368,0.138673 -0.0318,0.421984 -0.0632,0.462435 -0.194334,0.250258 z M 167.97465,26.737976 c -0.16202,-0.195483 -0.17102,-0.306148 -0.0315,-0.392136 0.25735,-0.159053 0.38888,-0.0081 0.31648,0.363057 -0.0532,0.271564 -0.0812,0.274442 -0.28454,0.02911 z M -6.0650848,26.087022 c 0,-0.09561 0.082841,-0.173829 0.1840911,-0.173829 0.10125,0 0.1357425,0.07822 0.076652,0.173829 -0.059064,0.09561 -0.1419249,0.173828 -0.1840845,0.173828 -0.042179,0 -0.076659,-0.07822 -0.076659,-0.173828 z M 100.66711,25.3917 c 0,-0.09561 0.0828,-0.173835 0.18409,-0.173835 0.10124,0 0.13574,0.07823 0.0766,0.173835 -0.0591,0.09561 -0.14193,0.173829 -0.18409,0.173829 -0.0422,0 -0.0767,-0.07822 -0.0767,-0.173829 z m 137.41332,-0.173835 c 0.0591,-0.09561 0.14197,-0.173829 0.18409,-0.173829 0.042,0 0.0767,0.07822 0.0767,0.173829 0,0.09561 -0.0829,0.173835 -0.18409,0.173835 -0.10125,0 -0.13574,-0.07823 -0.0767,-0.173835 z M 45.910362,25.044036 c 0,-0.09561 0.08284,-0.173829 0.184091,-0.173829 0.101244,0 0.135743,0.07822 0.07665,0.173829 -0.05906,0.09561 -0.141931,0.173829 -0.184091,0.173829 -0.04218,0 -0.07665,-0.07822 -0.07665,-0.173829 z m -92.825711,-0.521493 c 0,-0.09561 0.08284,-0.173828 0.184085,-0.173828 0.10125,0 0.135749,0.07822 0.07666,0.173828 -0.05906,0.09561 -0.141924,0.173829 -0.184091,0.173829 -0.04218,0 -0.07665,-0.07822 -0.07665,-0.173829 z M -59.69017,23.998212 c 0.06005,-0.09716 0.182001,-0.131662 0.271005,-0.07665 0.241112,0.149014 0.196154,0.253319 -0.109187,0.253319 -0.149053,0 -0.221868,-0.0795 -0.161818,-0.176667 z m 257.21768,-0.27544 c -0.12326,-0.133771 -0.14743,-0.243214 -0.0539,-0.243214 0.18055,0 0.44183,0.330661 0.33875,0.428613 -0.0335,0.0318 -0.16175,-0.05164 -0.28501,-0.185399 z M 68.44266,21.597775 c -0.07692,-0.222321 -0.0936,-0.450471 -0.03706,-0.507006 0.180195,-0.180195 0.306851,0.08551 0.240816,0.50518 l -0.06393,0.406045 z m 54.03305,-1.084908 c -0.0631,-0.101966 -0.0788,-0.221146 -0.0348,-0.264836 0.12128,-0.121243 0.65076,0.118792 0.65076,0.294999 0,0.217598 -0.47692,0.194235 -0.61561,-0.03016 z M 84.848484,19.65528 c 0,-0.09561 0.08284,-0.173836 0.184091,-0.173836 0.10125,0 0.135749,0.07823 0.07666,0.173836 -0.05906,0.09561 -0.141931,0.173828 -0.184091,0.173828 -0.04218,0 -0.07666,-0.07822 -0.07666,-0.173828 z M 56.253296,19.481444 c -0.05906,-0.09561 -0.02457,-0.173828 0.07666,-0.173828 0.10125,0 0.184091,0.07822 0.184091,0.173828 0,0.09561 -0.03449,0.173836 -0.07666,0.173836 -0.04218,0 -0.125,-0.07823 -0.184091,-0.173836 z m 9.415844,-1.680366 c -0.06373,-0.06373 -0.115888,-0.196718 -0.115888,-0.295511 0,-0.108924 0.08097,-0.09866 0.205699,0.02608 0.113135,0.113135 0.165288,0.246118 0.115888,0.295511 -0.04941,0.04941 -0.141957,0.03765 -0.205699,-0.02608 z m 10.313967,-0.589689 c 0,-0.10125 0.07823,-0.135749 0.173835,-0.07666 0.09561,0.05906 0.173829,0.141925 0.173829,0.184091 0,0.04218 -0.07822,0.07665 -0.173829,0.07665 -0.09561,0 -0.173835,-0.08284 -0.173835,-0.184084 z M 28.969268,17.059826 c -0.05499,-0.089 -0.0205,-0.210956 0.07666,-0.271006 0.09716,-0.06005 0.176667,0.01275 0.176667,0.161819 0,0.30534 -0.104312,0.350299 -0.253327,0.109187 z m 9.814024,-0.533503 c 0,-0.09561 0.08284,-0.173835 0.184091,-0.173835 0.10125,0 0.135743,0.07823 0.07666,0.173835 -0.05906,0.09561 -0.141932,0.173829 -0.184091,0.173829 -0.04218,0 -0.07666,-0.07822 -0.07666,-0.173829 z M 257.91686,16.146854 c 0.0499,-0.08123 0.16405,-0.102696 0.25308,-0.0477 0.22745,0.140565 0.20183,0.195378 -0.0913,0.195378 -0.13922,0 -0.21208,-0.06646 -0.16182,-0.147693 z m 11.96749,-0.501251 c -0.0631,-0.101973 -0.0773,-0.222676 -0.0315,-0.268246 0.0453,-0.04559 0.12916,0.03784 0.1858,0.185399 0.11754,0.306306 0.0171,0.360186 -0.15407,0.08285 z M -35.271945,15.307485 c -0.335995,-0.207657 -0.163159,-0.330864 0.252472,-0.179978 0.184873,0.06711 0.259357,0.169466 0.165531,0.22746 -0.09383,0.05801 -0.281925,0.03659 -0.418003,-0.0475 z m -22.247094,-0.161556 c 0,-0.08996 0.07823,-0.211915 0.173835,-0.271005 0.09561,-0.05906 0.173829,0.01452 0.173829,0.163573 0,0.149053 -0.07822,0.271005 -0.173829,0.271005 -0.09561,0 -0.173835,-0.0736 -0.173835,-0.163573 z M 263.47717,14.683711 c -0.0618,-0.161214 -0.0734,-0.332231 -0.0256,-0.380034 0.048,-0.04783 0.13751,0.045 0.1994,0.206205 0.0618,0.161221 0.0733,0.332238 0.0256,0.380041 -0.048,0.04783 -0.13757,-0.045 -0.1994,-0.206212 z M 142.2996,12.875874 c -0.0591,-0.09561 -0.0243,-0.173835 0.0767,-0.173835 0.10124,0 0.18409,0.07823 0.18409,0.173835 0,0.09561 -0.0348,0.173829 -0.0767,0.173829 -0.0421,0 -0.12503,-0.07822 -0.18409,-0.173829 z M 127.61088,9.3123388 c 0,-0.14341 0.0782,-0.26075 0.17384,-0.26075 0.0956,0 0.17385,0.11734 0.17385,0.26075 0,0.14341 -0.0782,0.260743 -0.17385,0.260743 -0.0956,0 -0.17384,-0.117333 -0.17384,-0.260743 z M 79.729649,8.1972808 c -0.05598,-0.09055 -0.02766,-0.210444 0.06287,-0.266413 0.09056,-0.05598 0.21045,-0.02766 0.266413,0.06287 0.05598,0.09056 0.02766,0.210444 -0.06287,0.266413 -0.09056,0.05598 -0.21045,0.02766 -0.26642,-0.06287 z M 40.834495,7.1046848 c 0.162246,-0.162239 0.254955,-0.162239 0.417194,0 0.162246,0.162239 0.115888,0.208597 -0.208597,0.208597 -0.324485,0 -0.370836,-0.04638 -0.208597,-0.208597 z M 26.962788,5.9035728 c -0.222828,-0.160288 -0.218144,-0.17396 0.03219,-0.09402 0.161143,0.05144 0.33097,1.64e-4 0.3774,-0.113976 0.04645,-0.114141 0.0906,-0.07063 0.09814,0.09668 0.0157,0.347724 -0.133614,0.380455 -0.507768,0.111309 z m 90.142602,-2.048693 c -0.0529,-0.08559 0.0207,-0.20047 0.16356,-0.25529 0.15779,-0.06058 0.25975,5.39e-4 0.25975,0.155617 0,0.281149 -0.27163,0.345108 -0.42331,0.09967 z m 66.2065,-0.732698 c -0.16727,-0.270631 0.0368,-0.380396 0.36549,-0.196508 0.26149,0.146359 0.26352,0.17511 0.0184,0.269093 -0.15085,0.05788 -0.32371,0.02523 -0.38415,-0.07259 z m 16.38148,-0.05335 c -0.10762,-0.280512 0.33967,-0.521493 0.49662,-0.267537 0.11826,0.191384 -0.0434,0.513898 -0.25708,0.513898 -0.0798,0 -0.18751,-0.110862 -0.23954,-0.246361 z m 59.4641,-1.7809 c 0.11951,-0.04822 0.31503,-0.04822 0.43454,0 0.11951,0.04822 0.0217,0.08768 -0.21727,0.08768 -0.23902,0 -0.33678,-0.03942 -0.21727,-0.08768 z"
       id="path1476" />
    <path
       id="path56846"
       style="fill:none;fill-opacity:1;stroke:#3b7900;stroke-width:0.745911;stroke-linecap:butt;stroke-linejoin:round;stroke-miterlimit:3.9;stroke-dasharray:1.49182, 1.49182;stroke-dashoffset:2.5212;stroke-opacity:1"
       d="m 85.600506,139.89705 -2.154754,-2.75781 c 0.145999,-3.81846 -0.913552,-6.83842 -2.315235,-9.71635 9.21e-4,-0.004 5.59e-4,-0.007 -2.92e-4,-0.011 -0.08894,-0.32507 -0.567002,-1.39127 -0.677312,-1.6337 -0.152809,-0.33583 -0.37528,-0.88945 -0.571133,-0.94624 v -0.005 c -0.0059,-2.1e-4 -0.01176,1.4e-4 -0.01769,6.5e-4 -0.0061,-6.5e-4 -0.01191,-6.5e-4 -0.01784,-6.5e-4 v 0.005 c -0.195852,0.0568 -0.418324,0.61041 -0.571134,0.94624 -0.110309,0.24243 -0.581471,1.31158 -0.677312,1.6337 -0.0018,0.007 -9.21e-4,0.0124 0.0026,0.0185 -1.399344,2.87459 -2.456679,5.8914 -2.311759,9.7045 l -2.158233,2.76208 1.575455,6.70529 1.474872,-4.23289 c 0.451589,-0.12079 0.879761,-0.17917 1.312422,-0.21009 l 2.453179,-0.0167 c 0.533642,0.025 1.05125,0.0783 1.603589,0.22564 l 1.475173,4.23401 z"
       sodipodi:nodetypes="cccccccccccccccccccccc" />
    <ellipse
       style="fill:#3b7900;fill-opacity:1;stroke:none;stroke-width:1.01701;stroke-linejoin:round;stroke-miterlimit:3.9;stroke-dasharray:none;stroke-dashoffset:20.4397;stroke-opacity:1"
       id="path114197"
       cx="42.850994"
       cy="83.014175"
       rx="2.9138765"
       ry="2.9581974" />
    <ellipse
       style="fill:#3b7900;fill-opacity:1;stroke:none;stroke-width:1.01701;stroke-linejoin:round;stroke-miterlimit:3.9;stroke-dasharray:none;stroke-dashoffset:20.4397;stroke-opacity:1"
       id="ellipse144476"
       cx="102.86311"
       cy="42.945759"
       rx="2.9138765"
       ry="2.9581974" />
    <ellipse
       style="fill:#3b7900;fill-opacity:1;stroke:none;stroke-width:1.01701;stroke-linejoin:round;stroke-miterlimit:3.9;stroke-dasharray:none;stroke-dashoffset:20.4397;stroke-opacity:1"
       id="ellipse144476-2"
       cx="122.9325"
       cy="103.10717"
       rx="2.9138765"
       ry="2.9581974" />
  </g>
</svg>
