<?xml version="1.0" encoding="UTF-8" standalone="no"?>
<!-- Created with Inkscape (http://www.inkscape.org/) -->

<svg
   width="504.89835mm"
   height="284.65732mm"
   viewBox="0 0 504.89835 284.65732"
   version="1.1"
   id="svg336260"
   inkscape:version="1.2-alpha1 (b6a15bb, 2022-02-23)"
   sodipodi:docname="stars.svg"
   xmlns:inkscape="http://www.inkscape.org/namespaces/inkscape"
   xmlns:sodipodi="http://sodipodi.sourceforge.net/DTD/sodipodi-0.dtd"
   xmlns="http://www.w3.org/2000/svg"
   xmlns:svg="http://www.w3.org/2000/svg">
  <sodipodi:namedview
     id="namedview336262"
     pagecolor="#ffffff"
     bordercolor="#666666"
     borderopacity="1.0"
     inkscape:pageshadow="2"
     inkscape:pageopacity="0.0"
     inkscape:pagecheckerboard="0"
     inkscape:deskcolor="#d1d1d1"
     inkscape:document-units="mm"
     showgrid="false"
     inkscape:zoom="0.69664703"
     inkscape:cx="809.5922"
     inkscape:cy="584.227"
     inkscape:window-width="1920"
     inkscape:window-height="1011"
     inkscape:window-x="0"
     inkscape:window-y="0"
     inkscape:window-maximized="1"
     inkscape:current-layer="layer1" />
  <defs
     id="defs336257" />
  <g
     inkscape:label="Layer 1"
     inkscape:groupmode="layer"
     id="layer1"
     transform="translate(109.26632,5.98211)">
    <path
       inkscape:export-filename="/home/tom/PORTFOLIO/wachstum_web/src/stars.png"
       inkscape:export-xdpi="96"
       inkscape:export-ydpi="96"
       style="fill:#eeeeee;fill-opacity:1;stroke-width:0.264583"
       d="m 222.41829,278.41071 c 0,-0.1456 0.1786,-0.2646 0.3969,-0.2646 0.2182,0 0.3968,0.119 0.3968,0.2646 0,0.1455 -0.1786,0.2645 -0.3968,0.2645 -0.2183,0 -0.3969,-0.119 -0.3969,-0.2645 z m -100.40938,-8.46675 c -0.0899,-0.14552 -0.0374,-0.26458 0.11667,-0.26458 0.15411,0 0.2802,0.11906 0.2802,0.26458 0,0.14552 -0.0525,0.26458 -0.11668,0.26458 -0.0642,0 -0.19026,-0.11906 -0.28019,-0.26458 z m -84.2698,-2.91042 c 0,-0.14552 0.11907,-0.26458 0.26459,-0.26458 0.14552,0 0.26458,0.11906 0.26458,0.26458 0,0.14552 -0.11906,0.26459 -0.26458,0.26459 -0.14552,0 -0.26459,-0.11907 -0.26459,-0.26459 z m 47.36042,-1.44589 c 0,-0.0677 0.23544,-0.249 0.52321,-0.40302 0.42687,-0.22844 0.49474,-0.20579 0.36857,0.12301 -0.13705,0.35713 -0.89178,0.59412 -0.89178,0.28001 z m 127.92606,-0.67077 c 0.09,-0.14552 0.216,-0.26459 0.2802,-0.26459 0.064,0 0.1167,0.11907 0.1167,0.26459 0,0.14552 -0.1261,0.26458 -0.2802,0.26458 -0.1542,0 -0.2067,-0.11906 -0.1167,-0.26458 z m -51.46148,-0.2802 c 0,-0.15412 0.11907,-0.20661 0.26459,-0.11668 0.14552,0.0899 0.26458,0.21603 0.26458,0.2802 0,0.0642 -0.11906,0.11668 -0.26458,0.11668 -0.14552,0 -0.26459,-0.1261 -0.26459,-0.2802 z m -171.97916,-1.5875 c 0,-0.15412 0.11906,-0.20661 0.26458,-0.11668 0.14552,0.0899 0.26458,0.21603 0.26458,0.2802 0,0.0642 -0.11906,0.11668 -0.26458,0.11668 -0.14552,0 -0.26458,-0.1261 -0.26458,-0.2802 z m 238.24644,-0.26656 c -0.096,-0.15521 -0.1177,-0.33894 -0.048,-0.40831 0.069,-0.0693 0.1966,0.0577 0.2828,0.2822 0.1789,0.46623 0.026,0.54822 -0.2345,0.12611 z m 76.1164,-1.01614 c -0.2661,-0.16539 -0.2787,-0.27265 -0.049,-0.41489 0.3631,-0.22439 0.6357,-0.0257 0.5013,0.36528 -0.055,0.16013 -0.2419,0.18061 -0.4527,0.0496 z M 32.57974,260.68354 c 0.0899,-0.14552 0.21603,-0.26458 0.2802,-0.26458 0.0642,0 0.11667,0.11906 0.11667,0.26458 0,0.14552 -0.12609,0.26459 -0.2802,0.26459 -0.1541,0 -0.20661,-0.11907 -0.11667,-0.26459 z m 219.20725,0.0312 c 0,-0.14552 0.1191,-0.33816 0.2646,-0.42809 0.1455,-0.0899 0.2646,-0.0444 0.2646,0.10107 0,0.14552 -0.1191,0.33816 -0.2646,0.42809 -0.1455,0.0899 -0.2646,0.0444 -0.2646,-0.10107 z m 34.6605,-2.14788 c 0,-0.14552 0.112,-0.26459 0.2489,-0.26459 0.1369,0 0.3226,0.11907 0.4125,0.26459 0.09,0.14552 -0.022,0.26458 -0.249,0.26458 -0.2268,0 -0.4124,-0.11906 -0.4124,-0.26458 z M 71.60578,257.24394 c -0.21828,-0.14107 -0.33734,-0.26741 -0.26458,-0.28078 0.0728,-0.0134 0.3208,-0.0613 0.55121,-0.10646 0.23041,-0.0452 0.41893,0.083 0.41893,0.28483 0,0.4303 -0.16184,0.45379 -0.70556,0.10241 z m -96.96979,-0.26458 c 0.0899,-0.14552 0.21603,-0.26459 0.2802,-0.26459 0.0642,0 0.11667,0.11907 0.11667,0.26459 0,0.14552 -0.12609,0.26458 -0.2802,0.26458 -0.1541,0 -0.20661,-0.11906 -0.11667,-0.26458 z m -4.89479,-2.79374 c 0,-0.22687 0.121,-0.33771 0.2689,-0.2463 0.14789,0.0914 0.2004,0.27702 0.11667,0.41249 -0.22681,0.36698 -0.38557,0.29855 -0.38557,-0.16619 z m 38.1,-4.08543 c 0,-0.14552 0.11906,-0.26458 0.26458,-0.26458 0.14552,0 0.26458,0.11906 0.26458,0.26458 0,0.14552 -0.11906,0.26458 -0.26458,0.26458 -0.14552,0 -0.26458,-0.11906 -0.26458,-0.26458 z m 140.49375,-1.85208 c 0,-0.14552 0.12609,-0.26459 0.2802,-0.26459 0.1541,0 0.20661,0.11907 0.11667,0.26459 -0.0899,0.14552 -0.21603,0.26458 -0.2802,0.26458 -0.0642,0 -0.11667,-0.11906 -0.11667,-0.26458 z m 92.78774,-5.46087 c -0.2114,-0.21138 0.027,-0.62455 0.3612,-0.62455 0.1369,0 0.249,0.17859 0.249,0.39687 0,0.40916 -0.3122,0.52565 -0.6102,0.22768 z m 98.4564,-0.80529 c 0.191,-0.0764 0.4192,-0.067 0.5071,0.0209 0.088,0.0879 -0.068,0.15045 -0.3472,0.13896 -0.3083,-0.0127 -0.371,-0.0754 -0.1599,-0.15985 z m -38.0504,-3.78801 c 0,-0.14552 0.1191,-0.26458 0.2646,-0.26458 0.1455,0 0.2646,0.11906 0.2646,0.26458 0,0.14552 -0.1191,0.26458 -0.2646,0.26458 -0.1455,0 -0.2646,-0.11906 -0.2646,-0.26458 z m 64.5583,-1.32292 c 0,-0.14552 0.1191,-0.26458 0.2646,-0.26458 0.1455,0 0.2646,0.11906 0.2646,0.26458 0,0.14552 -0.1191,0.26459 -0.2646,0.26459 -0.1455,0 -0.2646,-0.11907 -0.2646,-0.26459 z m -17.9916,-3.70416 c 0,-0.14552 0.1261,-0.26459 0.2802,-0.26459 0.1541,0 0.2066,0.11907 0.1166,0.26459 -0.09,0.14552 -0.216,0.26458 -0.2802,0.26458 -0.064,0 -0.1166,-0.11906 -0.1166,-0.26458 z m -151.0729,-1.45016 c -0.2877,-0.34657 -0.2633,-0.39776 0.1587,-0.33337 0.5382,0.0821 0.8253,0.52808 0.4258,0.66124 -0.1346,0.0449 -0.3976,-0.10267 -0.5845,-0.32787 z m 24.0729,-5.16443 c 0,-0.14552 0.1261,-0.26458 0.2802,-0.26458 0.1541,0 0.2066,0.11906 0.1166,0.26458 -0.09,0.14552 -0.216,0.26459 -0.2802,0.26459 -0.064,0 -0.1166,-0.11907 -0.1166,-0.26459 z m 146.4468,-0.26458 c 0.09,-0.14552 0.2161,-0.26458 0.2802,-0.26458 0.064,0 0.1167,0.11906 0.1167,0.26458 0,0.14552 -0.1261,0.26458 -0.2802,0.26458 -0.1541,0 -0.2066,-0.11906 -0.1167,-0.26458 z m -199.8927,-2.38125 c 0,-0.14552 0.1191,-0.26458 0.2646,-0.26458 0.1455,0 0.2646,0.11906 0.2646,0.26458 0,0.14552 -0.1191,0.26458 -0.2646,0.26458 -0.1455,0 -0.2646,-0.11906 -0.2646,-0.26458 z M 54.93703,222.75991 c 0,-0.19403 0.16724,-0.35278 0.37165,-0.35278 0.20441,0 0.31073,0.15875 0.23628,0.35278 -0.0745,0.19403 -0.2417,0.35278 -0.37165,0.35278 -0.12995,0 -0.23628,-0.15875 -0.23628,-0.35278 z m 138.64166,0.0726 c 0,-0.15411 0.1191,-0.20661 0.2646,-0.11668 0.1455,0.0899 0.2646,0.21603 0.2646,0.2802 0,0.0642 -0.1191,0.11668 -0.2646,0.11668 -0.1455,0 -0.2646,-0.12609 -0.2646,-0.2802 z m 162.0872,-0.0328 c 0.076,-0.12364 0.2498,-0.1563 0.3853,-0.0726 0.3461,0.21394 0.3072,0.29738 -0.139,0.29738 -0.2119,0 -0.3227,-0.10116 -0.2463,-0.22481 z m -212.35803,-4.97867 c 0,-0.14552 0.11907,-0.26458 0.26459,-0.26458 0.14552,0 0.26458,0.11906 0.26458,0.26458 0,0.14552 -0.11906,0.26459 -0.26458,0.26459 -0.14552,0 -0.26459,-0.11907 -0.26459,-0.26459 z M 47.3964,217.29188 c -0.0899,-0.14552 -0.0374,-0.26459 0.11668,-0.26459 0.15411,0 0.2802,0.11907 0.2802,0.26459 0,0.14552 -0.0525,0.26458 -0.11668,0.26458 -0.0642,0 -0.19026,-0.11906 -0.2802,-0.26458 z m 148.56359,-2.24896 c -0.275,-0.33126 -0.238,-0.39688 0.2238,-0.39688 0.3831,0 0.5065,0.12208 0.401,0.39688 -0.084,0.21828 -0.1845,0.39687 -0.2239,0.39687 -0.039,0 -0.2198,-0.17859 -0.4009,-0.39687 z m 32.5646,-3.19705 c 0.013,-0.30823 0.075,-0.37092 0.1598,-0.15985 0.076,0.19099 0.067,0.4192 -0.021,0.50712 -0.088,0.0879 -0.1504,-0.0684 -0.1389,-0.34727 z m 45.752,0.022 c 0,-0.42703 0.2424,-0.49034 0.9044,-0.23628 0.6441,0.24718 0.496,0.63315 -0.2429,0.63315 -0.4116,0 -0.6615,-0.14993 -0.6615,-0.39687 z M 81.81121,208.36214 c 0.1317,-0.10914 0.32832,-0.3175 0.43692,-0.46302 0.11269,-0.15099 0.1992,-0.0658 0.20152,0.19844 0.002,0.25738 -0.1918,0.46302 -0.43693,0.46302 -0.24253,0 -0.33321,-0.0893 -0.20151,-0.19844 z m 118.77898,-0.8599 c -0.09,-0.14552 -0.044,-0.26458 0.101,-0.26458 0.1456,0 0.3382,0.11906 0.4281,0.26458 0.09,0.14552 0.044,0.26459 -0.101,0.26459 -0.1456,0 -0.3382,-0.11907 -0.4281,-0.26459 z M 5.85682,203.79813 c -0.0899,-0.14552 -0.0374,-0.26459 0.11668,-0.26459 0.15411,0 0.2802,0.11907 0.2802,0.26459 0,0.14552 -0.0525,0.26458 -0.11668,0.26458 -0.0642,0 -0.19026,-0.11906 -0.2802,-0.26458 z m 114.43229,-1.4269 c 0,-0.251 0.792,-0.37749 0.93319,-0.14905 0.086,0.13917 -0.0888,0.25303 -0.3884,0.25303 -0.29963,0 -0.54479,-0.0468 -0.54479,-0.10398 z m 21.03438,-1.48352 c -0.0899,-0.14552 -0.0374,-0.26458 0.11667,-0.26458 0.15411,0 0.2802,0.11906 0.2802,0.26458 0,0.14552 -0.0525,0.26458 -0.11667,0.26458 -0.0642,0 -0.19026,-0.11906 -0.2802,-0.26458 z m -30.82396,-2.4474 c 0,-0.10914 0.29766,-0.19843 0.66146,-0.19843 0.3638,0 0.66146,0.0893 0.66146,0.19843 0,0.10914 -0.29766,0.19844 -0.66146,0.19844 -0.3638,0 -0.66146,-0.0893 -0.66146,-0.19844 z m -145.96181,-0.31909 c 0,-0.21188 0.0992,-0.32391 0.22049,-0.24896 0.12127,0.0749 0.22049,0.2483 0.22049,0.38523 0,0.13693 -0.0992,0.24897 -0.22049,0.24897 -0.12127,0 -0.22049,-0.17336 -0.22049,-0.38524 z m 344.44887,-2.8063 c 0.064,-0.19099 0.2721,-0.39935 0.4631,-0.46302 0.1984,-0.0661 0.2976,0.0331 0.2315,0.23151 -0.064,0.191 -0.272,0.39936 -0.463,0.46302 -0.1985,0.0661 -0.2977,-0.0331 -0.2316,-0.23151 z m -135.2516,-4.74596 c 0,-0.14552 0.112,-0.26458 0.2489,-0.26458 0.1369,0 0.3226,0.11906 0.4125,0.26458 0.09,0.14552 -0.022,0.26458 -0.249,0.26458 -0.2268,0 -0.4124,-0.11906 -0.4124,-0.26458 z m -241.9804,-1.60693 c 0,-0.28035 0.0935,-0.50974 0.20789,-0.50974 0.11433,0 0.20788,0.17157 0.20788,0.38126 0,0.2097 -0.0935,0.43908 -0.20788,0.50974 -0.11434,0.0707 -0.20789,-0.1009 -0.20789,-0.38126 z m 368.308,0.26641 c -0.096,-0.1552 -0.1176,-0.33893 -0.048,-0.40829 0.069,-0.0693 0.1966,0.0576 0.2828,0.28219 0.1789,0.46623 0.027,0.54823 -0.2345,0.1261 z m 83.4869,0.0176 c 0,-0.14552 0.1191,-0.26458 0.2646,-0.26458 0.1455,0 0.2646,0.11906 0.2646,0.26458 0,0.14552 -0.1191,0.26459 -0.2646,0.26459 -0.1455,0 -0.2646,-0.11907 -0.2646,-0.26459 z M 22.05422,188.81879 c -0.0943,-0.0943 -0.0608,-0.37831 0.0745,-0.63108 0.13528,-0.25277 0.16086,-0.55108 0.0568,-0.66289 -0.10402,-0.11182 -0.0105,-0.14489 0.20775,-0.0735 0.21828,0.0714 0.35716,0.35559 0.30862,0.63154 -0.10823,0.61523 -0.41725,0.96635 -0.64768,0.73592 z m 328.06897,-3.39138 c -0.079,-0.20681 0.027,-0.51836 0.2368,-0.69234 0.3109,-0.25799 0.3812,-0.21565 0.3812,0.22963 0,0.66657 -0.4193,0.98052 -0.618,0.46271 z m -233.27366,-2.26678 c 0,-0.14552 0.11906,-0.26459 0.26458,-0.26459 0.14552,0 0.26459,0.11907 0.26459,0.26459 0,0.14552 -0.11907,0.26458 -0.26459,0.26458 -0.14552,0 -0.26458,-0.11906 -0.26458,-0.26458 z m 154.78126,-0.0156 c 0,-0.15411 0.119,-0.20662 0.2646,-0.11668 0.1455,0.0899 0.2646,0.21603 0.2646,0.2802 0,0.0642 -0.1191,0.11668 -0.2646,0.11668 -0.1456,0 -0.2646,-0.12609 -0.2646,-0.2802 z M 34.8287,181.04397 c 0,-0.14552 0.11203,-0.26458 0.24896,-0.26458 0.13694,0 0.32256,0.11906 0.41249,0.26458 0.0899,0.14552 -0.0221,0.26458 -0.24896,0.26458 -0.22687,0 -0.41249,-0.11906 -0.41249,-0.26458 z m -21.43125,-3.43958 c 0,-0.14552 0.12609,-0.26459 0.2802,-0.26459 0.1541,0 0.20661,0.11907 0.11667,0.26459 -0.0899,0.14552 -0.21603,0.26458 -0.2802,0.26458 -0.0642,0 -0.11667,-0.11906 -0.11667,-0.26458 z m 10.9802,-0.26459 c -0.0899,-0.14552 -0.0374,-0.26458 0.11668,-0.26458 0.15411,0 0.2802,0.11906 0.2802,0.26458 0,0.14552 -0.0525,0.26459 -0.11668,0.26459 -0.0642,0 -0.19026,-0.11907 -0.2802,-0.26459 z m -70.77604,-1.05833 c 0,-0.14552 0.23813,-0.26458 0.52917,-0.26458 0.29104,0 0.52917,0.11906 0.52917,0.26458 0,0.14552 -0.23813,0.26458 -0.52917,0.26458 -0.29104,0 -0.52917,-0.11906 -0.52917,-0.26458 z m 386.94488,-0.54245 c -0.243,-0.3932 -0.05,-0.5324 0.3749,-0.26999 0.2275,0.14059 0.2545,0.27694 0.077,0.38681 -0.151,0.0933 -0.3543,0.0408 -0.4516,-0.11682 z M 52.02661,174.69397 c -0.32093,-0.2074 -0.28295,-0.25725 0.19844,-0.26053 0.32742,-0.002 0.59531,0.11501 0.59531,0.26053 0,0.3315 -0.28078,0.3315 -0.79375,0 z m 274.37288,-0.51355 c 0,-0.13693 0.099,-0.31029 0.2205,-0.38524 0.1213,-0.075 0.2205,0.0371 0.2205,0.24897 0,0.21188 -0.099,0.38524 -0.2205,0.38524 -0.1212,0 -0.2205,-0.11204 -0.2205,-0.24897 z m -93.2656,-0.80937 c -0.09,-0.14552 -0.037,-0.26458 0.1167,-0.26458 0.1541,0 0.2802,0.11906 0.2802,0.26458 0,0.14552 -0.053,0.26459 -0.1167,0.26459 -0.064,0 -0.1903,-0.11907 -0.2802,-0.26459 z M 112.6162,172.84189 c 0,-0.14552 0.11906,-0.26459 0.26458,-0.26459 0.14552,0 0.26458,0.11907 0.26458,0.26459 0,0.14552 -0.11906,0.26458 -0.26458,0.26458 -0.14552,0 -0.26458,-0.11906 -0.26458,-0.26458 z M -2.74214,171.76794 c 0,-0.15411 0.11907,-0.20662 0.26459,-0.11668 0.14552,0.0899 0.26458,0.21603 0.26458,0.2802 0,0.0642 -0.11906,0.11668 -0.26458,0.11668 -0.14552,0 -0.26459,-0.12609 -0.26459,-0.2802 z m 264.84793,-0.24897 c 0,-0.14552 0.112,-0.26458 0.249,-0.26458 0.1369,0 0.3225,0.11906 0.4124,0.26458 0.09,0.14552 -0.022,0.26458 -0.2489,0.26458 -0.2269,0 -0.4125,-0.11906 -0.4125,-0.26458 z m 130.7703,0.0882 c -0.1819,-0.0728 -0.3307,-0.24845 -0.3307,-0.39044 0,-0.14198 0.119,-0.18456 0.2646,-0.0946 0.1455,0.0899 0.2645,0.0374 0.2645,-0.11667 0,-0.15411 0.1874,-0.2802 0.4163,-0.2802 0.2464,0 0.3814,0.18001 0.3307,0.44109 -0.094,0.48504 -0.4361,0.64456 -0.9454,0.44085 z m 2.3151,-4.05694 c 0,-0.14552 0.1261,-0.26458 0.2802,-0.26458 0.1541,0 0.2066,0.11906 0.1167,0.26458 -0.09,0.14552 -0.2161,0.26458 -0.2802,0.26458 -0.064,0 -0.1167,-0.11906 -0.1167,-0.26458 z m -401.5493,-1.17899 c 0,-0.21188 0.10116,-0.32271 0.2248,-0.2463 0.12364,0.0764 0.15631,0.24977 0.0726,0.38524 -0.21395,0.34617 -0.29738,0.3072 -0.29738,-0.13894 z m 340.0337,-0.40851 c 0.09,-0.14552 0.3351,-0.26458 0.5448,-0.26458 0.2097,0 0.3812,0.11906 0.3812,0.26458 0,0.14552 -0.2451,0.26458 -0.5448,0.26458 -0.2996,0 -0.4712,-0.11906 -0.3812,-0.26458 z M -98.32118,165.2199 c 0.073,-0.19026 0.30571,-0.27956 0.51712,-0.19844 0.2114,0.0811 0.43416,0.1475 0.49502,0.1475 0.0609,0 0.11065,0.0893 0.11065,0.19844 0,0.10914 -0.28249,0.19843 -0.62777,0.19843 -0.40823,0 -0.58135,-0.12097 -0.49502,-0.34593 z m 200.88321,-1.12489 c 0,-0.15411 0.11906,-0.20661 0.26458,-0.11667 0.14552,0.0899 0.26459,0.21602 0.26459,0.28019 0,0.0642 -0.11907,0.11668 -0.26459,0.11668 -0.14552,0 -0.26458,-0.12609 -0.26458,-0.2802 z m 27.78125,-0.26458 c 0,-0.15411 0.11906,-0.20662 0.26458,-0.11668 0.14552,0.0899 0.26459,0.21603 0.26459,0.2802 0,0.0642 -0.11907,0.11668 -0.26459,0.11668 -0.14552,0 -0.26458,-0.12609 -0.26458,-0.2802 z m 15.08125,-0.10106 c 0,-0.2097 0.11906,-0.45485 0.26458,-0.54479 0.14552,-0.0899 0.26459,0.0816 0.26459,0.38126 0,0.29963 -0.11907,0.54479 -0.26459,0.54479 -0.14552,0 -0.26458,-0.17157 -0.26458,-0.38126 z M 226.91619,162.92 c 0,-0.21828 0.1191,-0.39687 0.2646,-0.39687 0.1455,0 0.2646,0.17859 0.2646,0.39687 0,0.21828 -0.1191,0.39688 -0.2646,0.39688 -0.1455,0 -0.2646,-0.1786 -0.2646,-0.39688 z m 38.1,-1.8677 c 0,-0.22687 0.121,-0.3377 0.2689,-0.2463 0.1479,0.0914 0.2004,0.27703 0.1167,0.41249 -0.2268,0.36699 -0.3856,0.29856 -0.3856,-0.16619 z M 131.6662,160.40646 c 0,-0.14552 0.12609,-0.26458 0.2802,-0.26458 0.1541,0 0.20661,0.11906 0.11667,0.26458 -0.0899,0.14552 -0.21603,0.26458 -0.2802,0.26458 -0.0642,0 -0.11667,-0.11906 -0.11667,-0.26458 z m 29.10821,-1.36701 c 0.006,-0.49116 0.43394,-1.11948 0.57536,-0.84405 0.21368,0.41622 0.0858,0.97509 -0.24868,1.08658 -0.1819,0.0606 -0.3289,-0.0485 -0.32668,-0.24253 z M -3.13901,158.81896 c -0.0899,-0.14552 -0.0374,-0.26458 0.11667,-0.26458 0.15411,0 0.2802,0.11906 0.2802,0.26458 0,0.14552 -0.0525,0.26458 -0.11667,0.26458 -0.0642,0 -0.19026,-0.11906 -0.2802,-0.26458 z m 106.75937,-1.20624 c 0,-0.22687 0.11907,-0.33891 0.26459,-0.24897 0.14552,0.0899 0.26458,0.27556 0.26458,0.41249 0,0.13693 -0.11906,0.24897 -0.26458,0.24897 -0.14552,0 -0.26459,-0.18562 -0.26459,-0.41249 z m -62.57129,-0.91474 c 0.0914,-0.1479 0.27703,-0.2004 0.41249,-0.11668 0.36699,0.22681 0.29856,0.38558 -0.16619,0.38558 -0.22687,0 -0.3377,-0.12101 -0.2463,-0.2689 z m 5.95046,-0.89342 c 0,-0.0572 0.17859,-0.17252 0.39687,-0.25628 0.21829,-0.0838 0.39688,-0.037 0.39688,0.10398 0,0.14096 -0.17859,0.25628 -0.39688,0.25628 -0.21828,0 -0.39687,-0.0468 -0.39687,-0.10398 z m 21.69583,-0.68977 c 0,-0.14552 0.12609,-0.26458 0.2802,-0.26458 0.15411,0 0.20662,0.11906 0.11668,0.26458 -0.0899,0.14552 -0.21603,0.26459 -0.2802,0.26459 -0.0642,0 -0.11668,-0.11907 -0.11668,-0.26459 z m 72.84861,-0.9144 c 0,-0.21188 0.0992,-0.32392 0.22049,-0.24897 0.12127,0.075 0.22049,0.24831 0.22049,0.38524 0,0.13693 -0.0992,0.24897 -0.22049,0.24897 -0.12127,0 -0.22049,-0.17336 -0.22049,-0.38524 z m 159.05872,-0.14393 c -0.09,-0.14552 -0.037,-0.26458 0.1166,-0.26458 0.1541,0 0.2802,0.11906 0.2802,0.26458 0,0.14552 -0.053,0.26458 -0.1166,0.26458 -0.064,0 -0.1903,-0.11906 -0.2802,-0.26458 z M 82.603,153.71432 c 0.0994,-0.26094 0.2473,-0.40778 0.32876,-0.32632 0.0815,0.0815 1.7e-4,0.29496 -0.18065,0.47443 -0.26131,0.25936 -0.2917,0.22897 -0.14811,-0.14811 z m 300.41739,-0.98078 c 0,-0.14552 0.119,-0.26458 0.2646,-0.26458 0.1455,0 0.2645,0.11906 0.2645,0.26458 0,0.14552 -0.119,0.26459 -0.2645,0.26459 -0.1456,0 -0.2646,-0.11907 -0.2646,-0.26459 z m -221.02278,-1.45521 c -0.0918,-0.23932 -0.003,-0.39687 0.22796,-0.39687 0.22932,0 0.3198,0.15755 0.22797,0.39687 -0.0838,0.21829 -0.18635,0.39688 -0.22797,0.39688 -0.0416,0 -0.1442,-0.17859 -0.22796,-0.39688 z m -7.44496,-0.92604 c -0.0899,-0.14552 -0.0374,-0.26458 0.11669,-0.26458 0.15409,0 0.28019,0.11906 0.28019,0.26458 0,0.14552 -0.0525,0.26459 -0.11668,0.26459 -0.0642,0 -0.19026,-0.11907 -0.2802,-0.26459 z M 69.6214,149.29396 c -0.0899,-0.14552 -0.0374,-0.26458 0.11668,-0.26458 0.15411,0 0.2802,0.11906 0.2802,0.26458 0,0.14552 -0.0525,0.26458 -0.11668,0.26458 -0.0642,0 -0.19026,-0.11906 -0.2802,-0.26458 z m 304.40309,-0.54478 c 0,-0.15411 0.1191,-0.20662 0.2646,-0.11668 0.1455,0.0899 0.2646,0.21603 0.2646,0.2802 0,0.0642 -0.1191,0.11668 -0.2646,0.11668 -0.1455,0 -0.2646,-0.12609 -0.2646,-0.2802 z m -257.70413,-0.24897 c 0,-0.14552 0.12609,-0.26458 0.2802,-0.26458 0.15411,0 0.20662,0.11906 0.11668,0.26458 -0.0899,0.14552 -0.21603,0.26458 -0.2802,0.26458 -0.0642,0 -0.11668,-0.11906 -0.11668,-0.26458 z m -30.53124,-0.94815 c -0.0989,-0.25768 -0.0398,-0.37864 0.15359,-0.31419 0.39551,0.13183 0.61327,0.73317 0.26551,0.73317 -0.14208,0 -0.33067,-0.18854 -0.4191,-0.41898 z m -152.15225,-1.94398 c -0.18073,-0.29243 0.23665,-0.60819 0.48096,-0.36387 0.25157,0.25156 0.20468,0.61017 -0.0798,0.61017 -0.13693,0 -0.31747,-0.11084 -0.40119,-0.2463 z m 1.59815,-3.15778 c -0.11398,-0.18441 -0.13577,-0.40675 -0.0484,-0.49408 0.23679,-0.23679 0.49497,0.11147 0.36708,0.49515 -0.0896,0.26886 -0.15195,0.26865 -0.31864,-0.001 z m 189.6843,-0.30009 c -0.0899,-0.14552 -0.0374,-0.26458 0.11668,-0.26458 0.15411,0 0.2802,0.11906 0.2802,0.26458 0,0.14552 -0.0525,0.26458 -0.11668,0.26458 -0.0642,0 -0.19026,-0.11906 -0.2802,-0.26458 z m 191.42607,0 c 0,-0.14552 0.119,-0.26458 0.2646,-0.26458 0.1455,0 0.2645,0.11906 0.2645,0.26458 0,0.14552 -0.119,0.26458 -0.2645,0.26458 -0.1456,0 -0.2646,-0.11906 -0.2646,-0.26458 z m -96.0229,-0.35278 c -0.024,-0.55494 0.5551,-0.46957 0.7103,0.10473 0.085,0.31442 0.059,0.31783 -0.1498,0.0197 -0.2134,-0.3045 -0.2751,-0.3045 -0.3962,0 -0.097,0.24268 -0.1502,0.20198 -0.1643,-0.1244 z m -106.78025,-0.17639 c -0.0899,-0.14552 0.0291,-0.26458 0.26458,-0.26458 0.23546,0 0.35452,0.11906 0.26459,0.26458 -0.0899,0.14552 -0.209,0.26459 -0.26459,0.26459 -0.0556,0 -0.17464,-0.11907 -0.26458,-0.26459 z m -180.975,-1.32291 c -0.0899,-0.14552 -0.0374,-0.26459 0.11667,-0.26459 0.15411,0 0.2802,0.11907 0.2802,0.26459 0,0.14552 -0.0525,0.26458 -0.11667,0.26458 -0.0642,0 -0.19026,-0.11906 -0.2802,-0.26458 z m 85.44152,-1.36702 c 0,-0.26679 0.0298,-0.48507 0.0663,-0.48507 0.0365,0 0.18311,0.21828 0.32589,0.48507 0.18642,0.34834 0.16774,0.48507 -0.0663,0.48507 -0.17923,0 -0.32588,-0.21828 -0.32588,-0.48507 z m 16.98884,-1.14653 c 0.0838,-0.21828 0.19909,-0.39687 0.25628,-0.39687 0.0572,0 0.10398,0.17859 0.10398,0.39687 0,0.21829 -0.11532,0.39688 -0.25628,0.39688 -0.14095,0 -0.18774,-0.17859 -0.10398,-0.39688 z m -84.57099,-0.80936 c 0,-0.22687 0.12101,-0.3377 0.2689,-0.2463 0.1479,0.0914 0.2004,0.27702 0.11668,0.41249 -0.22681,0.36699 -0.38558,0.29856 -0.38558,-0.16619 z m 157.03021,-1.17501 c 0.0899,-0.14552 0.21603,-0.26458 0.2802,-0.26458 0.0642,0 0.11668,0.11906 0.11668,0.26458 0,0.14552 -0.12609,0.26458 -0.2802,0.26458 -0.15411,0 -0.20662,-0.11906 -0.11668,-0.26458 z m 202.55937,-1.21267 c 0.013,-0.30823 0.075,-0.37092 0.1599,-0.15986 0.076,0.191 0.067,0.4192 -0.021,0.50712 -0.088,0.0879 -0.1505,-0.0684 -0.139,-0.34726 z m -287.35833,-2.4915 c 0,-0.14552 0.12609,-0.26458 0.2802,-0.26458 0.15411,0 0.20662,0.11906 0.11668,0.26458 -0.0899,0.14552 -0.21603,0.26459 -0.2802,0.26459 -0.0642,0 -0.11668,-0.11907 -0.11668,-0.26459 z m 359.22593,-2.02917 c -0.1895,-0.30667 0.2521,-1.0601 0.485,-0.82728 0.094,0.094 0.058,0.37374 -0.081,0.62163 -0.1387,0.24788 -0.3204,0.34042 -0.4037,0.20565 z m -49.2666,-2.73333 c -0.09,-0.14552 -0.037,-0.26458 0.1167,-0.26458 0.1541,0 0.2802,0.11906 0.2802,0.26458 0,0.14552 -0.053,0.26459 -0.1167,0.26459 -0.064,0 -0.1902,-0.11907 -0.2802,-0.26459 z m -221.85308,-3.175 c 0,-0.14552 0.18562,-0.26458 0.41249,-0.26458 0.22687,0 0.33891,0.11906 0.24897,0.26458 -0.0899,0.14552 -0.27556,0.26459 -0.41249,0.26459 -0.13693,0 -0.24897,-0.11907 -0.24897,-0.26459 z m -143.6647,-0.99218 c -0.002,-0.32743 0.11502,-0.59532 0.26054,-0.59532 0.3315,0 0.3315,0.28079 0,0.79375 -0.2074,0.32093 -0.25726,0.28296 -0.26054,-0.19843 z m 236.53348,-0.0661 c 0,-0.14552 0.1261,-0.26458 0.2802,-0.26458 0.1541,0 0.2066,0.11906 0.1166,0.26458 -0.09,0.14552 -0.216,0.26458 -0.2802,0.26458 -0.064,0 -0.1166,-0.11906 -0.1166,-0.26458 z m -238.51923,-0.2689 c 0.0914,-0.14789 0.27702,-0.2004 0.41249,-0.11667 0.36698,0.2268 0.29855,0.38557 -0.16619,0.38557 -0.22687,0 -0.33771,-0.121 -0.2463,-0.2689 z m 199.75774,-1.84777 c -0.0899,-0.14552 -0.0374,-0.26458 0.11669,-0.26458 0.15409,0 0.28019,0.11906 0.28019,0.26458 0,0.14552 -0.0525,0.26459 -0.11668,0.26459 -0.0642,0 -0.19026,-0.11907 -0.2802,-0.26459 z m 187.34459,-1.49945 c -0.1994,-0.51966 0.2282,-1.07244 0.4953,-0.64027 0.098,0.1582 0.055,0.28764 -0.094,0.28764 -0.1495,0 -0.2033,0.17859 -0.1196,0.39687 0.084,0.21829 0.093,0.39688 0.02,0.39688 -0.073,0 -0.2084,-0.1985 -0.3016,-0.44112 z m -53.9946,-0.61721 c -0.09,-0.14552 -0.037,-0.26459 0.1167,-0.26459 0.1541,0 0.2802,0.11907 0.2802,0.26459 0,0.14552 -0.053,0.26458 -0.1167,0.26458 -0.064,0 -0.1903,-0.11906 -0.2802,-0.26458 z M -90.15348,117.9326 c -0.0784,-0.20443 -0.0288,-0.44206 0.1104,-0.52807 0.13916,-0.086 0.25303,-0.0233 0.25303,0.13943 0,0.1627 0.11906,0.22223 0.26458,0.13229 0.14552,-0.0899 0.26458,-0.0502 0.26458,0.0884 0,0.42423 -0.74076,0.56364 -0.89259,0.16798 z m 305.95717,-0.80113 c 0,-0.22687 0.121,-0.3377 0.2689,-0.2463 0.1479,0.0914 0.2004,0.27702 0.1167,0.41249 -0.2268,0.36699 -0.3856,0.29856 -0.3856,-0.16619 z m 6.4714,-5.42595 c -0.096,-0.1552 -0.1108,-0.34571 -0.033,-0.42337 0.1895,-0.18952 0.7056,0.14442 0.7056,0.45659 0,0.33813 -0.4568,0.31556 -0.6724,-0.0332 z m 139.8432,-0.51156 c 0,-0.14552 0.2381,-0.26458 0.5292,-0.26458 0.291,0 0.5291,0.11906 0.5291,0.26458 0,0.14552 -0.2381,0.26458 -0.5291,0.26458 -0.2911,0 -0.5292,-0.11906 -0.5292,-0.26458 z m -66.675,-2.13228 c 0,-0.15411 0.119,-0.20662 0.2646,-0.11668 0.1455,0.0899 0.2646,0.21603 0.2646,0.2802 0,0.0642 -0.1191,0.11668 -0.2646,0.11668 -0.1456,0 -0.2646,-0.12609 -0.2646,-0.2802 z m -10.5121,-0.53357 c -0.021,-0.28003 0.08,-0.50915 0.2254,-0.50915 0.145,0 0.1902,0.11906 0.1002,0.26458 -0.09,0.14552 -0.047,0.26459 0.095,0.26459 0.142,0 0.3182,-0.14883 0.3916,-0.33073 0.1006,-0.24928 0.1386,-0.25157 0.1544,-0.009 0.011,0.17679 -0.1926,0.43567 -0.4535,0.5753 -0.3767,0.20162 -0.4823,0.14909 -0.5127,-0.25528 z M -88.9963,108.42414 c 0,-0.23603 0.1552,-0.32901 0.39535,-0.23686 0.21745,0.0834 0.32948,0.2583 0.24897,0.38857 -0.23088,0.37357 -0.64432,0.27622 -0.64432,-0.15171 z m 237.06666,-3.40379 c 0,-0.54913 0.31316,-0.73004 0.70326,-0.40628 0.51287,0.42564 0.43639,0.75906 -0.17409,0.75906 -0.29104,0 -0.52917,-0.15875 -0.52917,-0.35278 z M 71.3412,100.08146 c -0.33917,-0.21919 -0.32956,-0.25707 0.0661,-0.26053 0.25466,-0.002 0.46302,0.11501 0.46302,0.26053 0,0.32269 -0.0298,0.32269 -0.52916,0 z m -111.125,-0.80937 c 0,-0.1541 0.11906,-0.20661 0.26458,-0.11667 0.14552,0.0899 0.26458,0.21603 0.26458,0.2802 0,0.0642 -0.11906,0.11667 -0.26458,0.11667 -0.14552,0 -0.26458,-0.12609 -0.26458,-0.2802 z m 69.32083,-3.43958 c 0,-0.29963 0.11906,-0.4712 0.26458,-0.38126 0.14552,0.0899 0.26459,0.33509 0.26459,0.54478 0,0.2097 -0.11907,0.38126 -0.26459,0.38126 -0.14552,0 -0.26458,-0.24515 -0.26458,-0.54478 z m 329.67086,-2.10105 c 0,-0.14552 0.1261,-0.26458 0.2802,-0.26458 0.1541,0 0.2066,0.11906 0.1166,0.26458 -0.09,0.14552 -0.216,0.26458 -0.2802,0.26458 -0.064,0 -0.1166,-0.11906 -0.1166,-0.26458 z M -71.5338,92.39293 c 0,-0.15411 0.11906,-0.20662 0.26458,-0.11668 0.14552,0.0899 0.26458,0.21603 0.26458,0.2802 0,0.0642 -0.11906,0.11668 -0.26458,0.11668 -0.14552,0 -0.26458,-0.12609 -0.26458,-0.2802 z m 6.48229,-0.77814 c 0.0899,-0.14552 0.21603,-0.26458 0.2802,-0.26458 0.0642,0 0.11667,0.11906 0.11667,0.26458 0,0.14552 -0.12609,0.26459 -0.2802,0.26459 -0.1541,0 -0.20661,-0.11907 -0.11667,-0.26459 z m 155.97187,-3.175 c 0,-0.14552 0.12609,-0.26458 0.2802,-0.26458 0.15411,0 0.20662,0.11906 0.11668,0.26458 -0.0899,0.14552 -0.21603,0.26459 -0.2802,0.26459 -0.0642,0 -0.11668,-0.11907 -0.11668,-0.26459 z m 174.62503,-0.26458 c 0,-0.14552 0.119,-0.26458 0.2646,-0.26458 0.1455,0 0.2645,0.11906 0.2645,0.26458 0,0.14552 -0.119,0.26458 -0.2645,0.26458 -0.1456,0 -0.2646,-0.11906 -0.2646,-0.26458 z m 60.325,-1.85208 c 0,-0.14552 0.119,-0.26459 0.2646,-0.26459 0.1455,0 0.2645,0.11907 0.2645,0.26459 0,0.14552 -0.119,0.26458 -0.2645,0.26458 -0.1456,0 -0.2646,-0.11906 -0.2646,-0.26458 z M 11.65968,85.61812 c 0.0845,-0.16947 0.0497,-0.34806 -0.0772,-0.39687 -0.12691,-0.0488 -0.15181,-0.30865 -0.0553,-0.57742 0.14939,-0.4162 0.22194,-0.4326 0.48919,-0.11059 0.24553,0.29585 0.22416,0.48848 -0.0982,0.88555 -0.2266,0.27911 -0.34291,0.3688 -0.25845,0.19933 z m 15.36381,-0.0887 c 0.0899,-0.14552 0.21603,-0.26459 0.2802,-0.26459 0.0642,0 0.11667,0.11907 0.11667,0.26459 0,0.14552 -0.12609,0.26458 -0.2802,0.26458 -0.1541,0 -0.20661,-0.11906 -0.11667,-0.26458 z m 363.1406,-0.80937 c 0,-0.15411 0.1191,-0.20661 0.2646,-0.11668 0.1455,0.0899 0.2646,0.21603 0.2646,0.2802 0,0.0642 -0.1191,0.11668 -0.2646,0.11668 -0.1455,0 -0.2646,-0.12609 -0.2646,-0.2802 z M -71.26922,84.2065 c 0,-0.14552 0.11906,-0.26458 0.26458,-0.26458 0.14552,0 0.26459,0.11906 0.26459,0.26458 0,0.14552 -0.11907,0.26458 -0.26459,0.26458 -0.14552,0 -0.26458,-0.11906 -0.26458,-0.26458 z M 96.21203,82.35442 c 0,-0.29398 0.17639,-0.52917 0.39688,-0.52917 0.22048,0 0.39687,0.23519 0.39687,0.52917 0,0.29398 -0.17639,0.52916 -0.39687,0.52916 -0.22049,0 -0.39688,-0.23518 -0.39688,-0.52916 z m 84.00516,0.26458 c 0.09,-0.14552 0.2161,-0.26458 0.2802,-0.26458 0.064,0 0.1167,0.11906 0.1167,0.26458 0,0.14552 -0.1261,0.26458 -0.2802,0.26458 -0.1541,0 -0.2066,-0.11906 -0.1167,-0.26458 z m -32.01453,-1.05833 c -0.0899,-0.14552 -0.0374,-0.26459 0.11667,-0.26459 0.15411,0 0.2802,0.11907 0.2802,0.26459 0,0.14552 -0.0525,0.26458 -0.11668,0.26458 -0.0642,0 -0.19026,-0.11906 -0.28019,-0.26458 z M 354.86449,78.2908 c 0.092,-0.23887 0.3523,-0.4343 0.5793,-0.4343 0.227,0 0.3631,0.0337 0.3024,0.0749 -0.061,0.0412 -0.3213,0.23661 -0.5793,0.4343 -0.4084,0.31292 -0.4475,0.30323 -0.3024,-0.0749 z m -2.0783,-1.65249 c -0.3448,-0.34477 -0.2043,-0.63389 0.3079,-0.63389 0.2755,0 0.5759,0.19543 0.6676,0.43429 0.1348,0.35141 0.095,0.37455 -0.2106,0.12125 -0.2686,-0.22293 -0.4052,-0.22894 -0.4746,-0.0209 -0.053,0.16069 -0.1842,0.20535 -0.2903,0.0992 z m -54.5648,-2.22139 c 0.09,-0.14552 0.216,-0.26459 0.2802,-0.26459 0.064,0 0.1167,0.11907 0.1167,0.26459 0,0.14552 -0.1261,0.26458 -0.2802,0.26458 -0.1541,0 -0.2066,-0.11906 -0.1167,-0.26458 z m -342.8173,-2.03283 c 0.19099,-0.0764 0.4192,-0.067 0.50712,0.0209 0.0879,0.0879 -0.0684,0.15045 -0.34727,0.13896 -0.30823,-0.0127 -0.37092,-0.0754 -0.15985,-0.15985 z m 161.31315,-0.34842 c -0.0899,-0.14552 -0.0374,-0.26459 0.11667,-0.26459 0.15411,0 0.2802,0.11907 0.2802,0.26459 0,0.14552 -0.0525,0.26458 -0.11667,0.26458 -0.0642,0 -0.19026,-0.11906 -0.2802,-0.26458 z M 330.37229,70.7789 c 0,-0.32743 0.115,-0.59532 0.2606,-0.59532 0.3315,0 0.3315,0.28079 0,0.79375 -0.2074,0.32093 -0.2573,0.28296 -0.2606,-0.19843 z m 54.6324,-0.59532 c 0.09,-0.14552 0.2161,-0.26458 0.2802,-0.26458 0.064,0 0.1167,0.11906 0.1167,0.26458 0,0.14552 -0.1261,0.26459 -0.2802,0.26459 -0.1541,0 -0.2066,-0.11907 -0.1167,-0.26459 z m -111.7864,-1.33853 c 0,-0.15411 0.119,-0.20661 0.2646,-0.11668 0.1455,0.0899 0.2646,0.21603 0.2646,0.2802 0,0.0642 -0.1191,0.11668 -0.2646,0.11668 -0.1456,0 -0.2646,-0.12609 -0.2646,-0.2802 z M 30.59536,68.31584 c 0,-0.1541 0.11907,-0.20661 0.26459,-0.11667 0.14552,0.0899 0.26458,0.21603 0.26458,0.2802 0,0.0642 -0.11906,0.11667 -0.26458,0.11667 -0.14552,0 -0.26459,-0.12609 -0.26459,-0.2802 z m -64.57857,-0.0505 c -0.16736,-0.54684 -0.14917,-1.01977 0.0438,-1.13904 0.13256,-0.0819 0.24101,0.15573 0.24101,0.52812 0,0.53855 -0.18532,0.93605 -0.28482,0.61092 z m 88.12649,-1.77032 c 0,-0.13693 0.1177,-0.32171 0.26155,-0.41062 0.14999,-0.0927 0.19434,0.0135 0.10399,0.24897 -0.17589,0.45837 -0.36554,0.54224 -0.36554,0.16165 z m 312.10331,0.0285 c -0.075,-0.12126 0.032,-0.22048 0.2373,-0.22048 0.2055,0 0.3123,0.0992 0.2373,0.22048 -0.075,0.12127 -0.1817,0.22049 -0.2373,0.22049 -0.056,0 -0.1624,-0.0992 -0.2373,-0.22049 z m -458.2856,-1.10248 c -0.0899,-0.14552 0.0221,-0.26458 0.24897,-0.26458 0.22687,0 0.41249,0.11906 0.41249,0.26458 0,0.14552 -0.11204,0.26459 -0.24897,0.26459 -0.13693,0 -0.32255,-0.11907 -0.41249,-0.26459 z M 77.16203,65.15646 c 0,-0.14552 0.12609,-0.26458 0.2802,-0.26458 0.15411,0 0.20661,0.11906 0.11667,0.26458 -0.0899,0.14552 -0.21602,0.26458 -0.28019,0.26458 -0.0642,0 -0.11668,-0.11906 -0.11668,-0.26458 z m 205.85826,-0.41181 c 0.3931,-0.47368 0.7813,-0.49423 0.7813,-0.0414 0,0.18731 -0.2471,0.35919 -0.5492,0.38194 -0.45,0.0339 -0.4919,-0.0276 -0.2321,-0.34057 z m 60.8417,-3.02777 c 0,-0.14552 0.1191,-0.26459 0.2646,-0.26459 0.1455,0 0.2646,0.11907 0.2646,0.26459 0,0.14552 -0.1191,0.26458 -0.2646,0.26458 -0.1455,0 -0.2646,-0.11906 -0.2646,-0.26458 z M -39.07989,59.48315 c -0.18365,-0.47859 0.30016,-0.83679 0.65327,-0.48367 0.1606,0.1606 0.11523,0.36686 -0.12445,0.56578 -0.29608,0.24573 -0.40979,0.22807 -0.52882,-0.0821 z m 228.95438,-3.05794 c 0,-0.14552 0.1191,-0.26458 0.2646,-0.26458 0.1455,0 0.2646,0.11906 0.2646,0.26458 0,0.14552 -0.1191,0.26458 -0.2646,0.26458 -0.1455,0 -0.2646,-0.11906 -0.2646,-0.26458 z M 98.99015,54.57313 c -0.0899,-0.14552 -0.0374,-0.26459 0.11668,-0.26459 0.15411,0 0.2802,0.11907 0.2802,0.26459 0,0.14552 -0.0525,0.26458 -0.11668,0.26458 -0.0642,0 -0.19026,-0.11906 -0.2802,-0.26458 z m 62.13298,-7.81685 c 0,-0.21188 0.0992,-0.38524 0.22051,-0.38524 0.12125,0 0.22047,0.11204 0.22047,0.24897 0,0.13693 -0.0992,0.31029 -0.22047,0.38524 -0.12129,0.075 -0.22051,-0.0371 -0.22051,-0.24897 z m 121.62016,0.20322 c 0,-0.16142 -0.2381,-0.24763 -0.5292,-0.19158 -0.6797,0.1309 -0.6951,-0.29176 -0.017,-0.46907 0.4849,-0.12681 1.0062,0.49415 0.6848,0.81562 -0.076,0.0762 -0.1385,0.006 -0.1385,-0.15497 z M 36.68078,46.10646 c 0,-0.14552 0.11906,-0.26458 0.26458,-0.26458 0.14552,0 0.26459,0.11906 0.26459,0.26458 0,0.14552 -0.11907,0.26458 -0.26459,0.26458 -0.14552,0 -0.26458,-0.11906 -0.26458,-0.26458 z m 4.65746,-4.27743 c 0.075,-0.12127 0.24831,-0.22049 0.38524,-0.22049 0.13693,0 0.24897,0.0992 0.24897,0.22049 0,0.12127 -0.17336,0.22049 -0.38524,0.22049 -0.21188,0 -0.32392,-0.0992 -0.24897,-0.22049 z m -76.43993,-0.31292 c -0.19585,-0.51038 0.47748,-1.12907 0.7496,-0.68878 0.10293,0.16656 0.0107,0.47923 -0.20485,0.69483 -0.34628,0.34628 -0.40982,0.34557 -0.54475,-0.006 z m 52.73247,-2.30443 c 0,-0.15411 0.11906,-0.20662 0.26458,-0.11668 0.14552,0.0899 0.26459,0.21603 0.26459,0.2802 0,0.0642 -0.11907,0.11668 -0.26459,0.11668 -0.14552,0 -0.26458,-0.12609 -0.26458,-0.2802 z m 85.19583,-1.0271 c 0,-0.13694 0.1177,-0.32172 0.26156,-0.41062 0.14998,-0.0927 0.19433,0.0135 0.10398,0.24897 -0.17589,0.45837 -0.36554,0.54223 -0.36554,0.16165 z m 66.41038,-1.7071 c 0,-0.57792 0.6803,-0.70164 0.7232,-0.13153 0.021,0.276 -0.1328,0.50009 -0.3427,0.50009 -0.2093,0 -0.3805,-0.16585 -0.3805,-0.36856 z m 139.5677,-1.48352 c 0.09,-0.14552 0.2161,-0.26458 0.2802,-0.26458 0.064,0 0.1167,0.11906 0.1167,0.26458 0,0.14552 -0.1261,0.26458 -0.2802,0.26458 -0.1541,0 -0.2066,-0.11906 -0.1167,-0.26458 z M 104.54641,33.93563 c 0.0899,-0.14552 0.21602,-0.26459 0.28019,-0.26459 0.0642,0 0.11668,0.11907 0.11668,0.26459 0,0.14552 -0.12609,0.26458 -0.2802,0.26458 -0.15411,0 -0.20661,-0.11906 -0.11667,-0.26458 z M -7.07469,32.93081 c -0.0718,-0.11609 -0.0245,-0.38248 0.10497,-0.59198 0.17751,-0.28722 0.22444,-0.23531 0.19082,0.21107 -0.0484,0.64229 -0.0962,0.70386 -0.29579,0.38091 z m 244.36288,-0.12105 c -0.2466,-0.29754 -0.2603,-0.46598 -0.048,-0.59686 0.3917,-0.24209 0.5919,-0.0124 0.4817,0.5526 -0.081,0.41334 -0.1236,0.41772 -0.4331,0.0443 z m -264.90116,-0.9908 c 0,-0.14552 0.12609,-0.26458 0.2802,-0.26458 0.15411,0 0.20661,0.11906 0.11667,0.26458 -0.0899,0.14552 -0.21602,0.26458 -0.28019,0.26458 -0.0642,0 -0.11668,-0.11906 -0.11668,-0.26458 z M 134.8412,30.76063 c 0,-0.14552 0.12609,-0.26459 0.2802,-0.26459 0.1541,0 0.20661,0.11907 0.11667,0.26459 -0.0899,0.14552 -0.21603,0.26458 -0.2802,0.26458 -0.0642,0 -0.11667,-0.11906 -0.11667,-0.26458 z m 209.15309,-0.26459 c 0.09,-0.14552 0.2161,-0.26458 0.2802,-0.26458 0.064,0 0.1167,0.11906 0.1167,0.26458 0,0.14552 -0.1261,0.26459 -0.2802,0.26459 -0.1541,0 -0.2066,-0.11907 -0.1167,-0.26459 z M 51.49745,30.23146 c 0,-0.14552 0.12609,-0.26458 0.2802,-0.26458 0.1541,0 0.20661,0.11906 0.11667,0.26458 -0.0899,0.14552 -0.21603,0.26458 -0.2802,0.26458 -0.0642,0 -0.11667,-0.11906 -0.11667,-0.26458 z m -141.2875,-0.79375 c 0,-0.14552 0.12609,-0.26458 0.28019,-0.26458 0.15411,0 0.20662,0.11906 0.11668,0.26458 -0.0899,0.14552 -0.21602,0.26458 -0.2802,0.26458 -0.0642,0 -0.11667,-0.11906 -0.11667,-0.26458 z m -19.44421,-0.79807 c 0.0914,-0.14789 0.27702,-0.2004 0.41249,-0.11667 0.36699,0.22681 0.29856,0.38557 -0.16619,0.38557 -0.22687,0 -0.3377,-0.121 -0.2463,-0.2689 z M 282.26979,28.2204 c -0.1876,-0.20361 -0.2244,-0.37019 -0.082,-0.37019 0.2748,0 0.6725,0.50329 0.5156,0.65238 -0.051,0.0484 -0.2462,-0.0786 -0.4338,-0.28219 z M 85.79325,24.986 c -0.11708,-0.33839 -0.14247,-0.68565 -0.0564,-0.7717 0.27427,-0.27427 0.46705,0.13015 0.36654,0.76892 l -0.0973,0.61803 z m 82.24224,-1.65131 c -0.096,-0.1552 -0.12,-0.3366 -0.053,-0.4031 0.1846,-0.18454 0.9905,0.18081 0.9905,0.44901 0,0.3312 -0.7259,0.29564 -0.937,-0.0459 z m -57.27138,-1.30531 c 0,-0.14552 0.12609,-0.26459 0.2802,-0.26459 0.15411,0 0.20662,0.11907 0.11668,0.26459 -0.0899,0.14552 -0.21603,0.26458 -0.2802,0.26458 -0.0642,0 -0.11668,-0.11906 -0.11668,-0.26458 z M 67.24015,21.76479 c -0.0899,-0.14552 -0.0374,-0.26458 0.11668,-0.26458 0.15411,0 0.2802,0.11906 0.2802,0.26458 0,0.14552 -0.0525,0.26459 -0.11668,0.26459 -0.0642,0 -0.19026,-0.11907 -0.2802,-0.26459 z m 14.3316,-2.55764 c -0.097,-0.097 -0.17639,-0.29942 -0.17639,-0.44979 0,-0.16579 0.12324,-0.15016 0.31309,0.0397 0.1722,0.1722 0.25158,0.37461 0.17639,0.44979 -0.0752,0.0752 -0.21607,0.0573 -0.31309,-0.0397 z M 97.27036,18.3096 c 0,-0.15411 0.11907,-0.20662 0.26459,-0.11668 0.14552,0.0899 0.26458,0.21602 0.26458,0.2802 0,0.0642 -0.11906,0.11667 -0.26458,0.11667 -0.14552,0 -0.26459,-0.12609 -0.26459,-0.28019 z M 25.71187,18.07891 c -0.0837,-0.13547 -0.0312,-0.32109 0.11668,-0.41249 0.14789,-0.0914 0.2689,0.0194 0.2689,0.2463 0,0.46475 -0.15877,0.53318 -0.38558,0.16619 z m 14.93766,-0.81203 c 0,-0.14552 0.12609,-0.26459 0.2802,-0.26459 0.15411,0 0.20661,0.11907 0.11668,0.26459 -0.0899,0.14552 -0.21603,0.26458 -0.2802,0.26458 -0.0642,0 -0.11668,-0.11906 -0.11668,-0.26458 z M 374.18679,16.6893 c 0.076,-0.12364 0.2497,-0.15631 0.3852,-0.0726 0.3462,0.21395 0.3072,0.29738 -0.1389,0.29738 -0.2119,0 -0.3228,-0.10116 -0.2463,-0.2248 z m 18.2154,-0.76294 c -0.096,-0.15521 -0.1177,-0.33893 -0.048,-0.40829 0.069,-0.0694 0.1966,0.0576 0.2828,0.28219 0.1789,0.46622 0.026,0.54823 -0.2345,0.1261 z M -72.06794,15.41172 c -0.51141,-0.31607 -0.24834,-0.5036 0.38428,-0.27394 0.28139,0.10215 0.39476,0.25794 0.25195,0.34621 -0.14281,0.0883 -0.42911,0.0557 -0.63623,-0.0723 z m -33.8617,-0.2459 c 0,-0.13693 0.11907,-0.32255 0.26459,-0.41249 0.14552,-0.0899 0.26458,0.0221 0.26458,0.24897 0,0.22687 -0.11906,0.41249 -0.26458,0.41249 -0.14552,0 -0.26459,-0.11203 -0.26459,-0.24897 z m 488.57963,-0.70353 c -0.094,-0.24538 -0.1117,-0.50568 -0.039,-0.57844 0.073,-0.0728 0.2093,0.0685 0.3035,0.31386 0.094,0.24539 0.1116,0.50569 0.039,0.57845 -0.073,0.0728 -0.2094,-0.0685 -0.3035,-0.31387 z m -184.4411,-2.75166 c -0.09,-0.14552 -0.037,-0.26459 0.1167,-0.26459 0.1541,0 0.2802,0.11907 0.2802,0.26459 0,0.14552 -0.053,0.26458 -0.1167,0.26458 -0.064,0 -0.1903,-0.11906 -0.2802,-0.26458 z m -22.3573,-5.42396 c 0,-0.21828 0.1191,-0.39688 0.2646,-0.39688 0.1455,0 0.2646,0.1786 0.2646,0.39688 0,0.21828 -0.1191,0.39687 -0.2646,0.39687 -0.1455,0 -0.2646,-0.17859 -0.2646,-0.39687 z m -72.87872,-1.6972 c -0.0852,-0.13783 -0.0421,-0.32031 0.0957,-0.4055 0.13784,-0.0852 0.32032,-0.0421 0.4055,0.0957 0.0852,0.13783 0.0421,0.32031 -0.0957,0.4055 -0.13784,0.0852 -0.32032,0.0421 -0.40551,-0.0957 z M 43.77161,2.92646 c 0.24695,-0.24694 0.38806,-0.24694 0.635,0 0.24695,0.24694 0.17639,0.3175 -0.3175,0.3175 -0.49389,0 -0.56444,-0.0706 -0.3175,-0.3175 z M 22.65786,1.09828 c -0.33916,-0.24397 -0.33203,-0.26478 0.049,-0.1431 0.24527,0.0783 0.50376,2.5e-4 0.57443,-0.17348 0.0707,-0.17373 0.1379,-0.10751 0.14938,0.14716 0.0239,0.52926 -0.20337,0.57908 -0.77286,0.16942 z m 137.20361,-3.11826 c -0.0805,-0.13027 0.0315,-0.30513 0.24894,-0.38857 0.24017,-0.0922 0.39537,8.2e-4 0.39537,0.23686 0,0.42793 -0.41344,0.52528 -0.64431,0.15171 z M 260.63259,-3.1352 c -0.2546,-0.41192 0.056,-0.57899 0.5563,-0.2991 0.398,0.22277 0.4011,0.26653 0.028,0.40958 -0.2296,0.0881 -0.4927,0.0384 -0.5847,-0.11048 z m 24.9338,-0.0812 c -0.1638,-0.42696 0.517,-0.79375 0.7559,-0.40721 0.18,0.2913 -0.066,0.78219 -0.3913,0.78219 -0.1214,0 -0.2854,-0.16874 -0.3646,-0.37498 z m 90.5087,-2.71066 c 0.1819,-0.0734 0.4795,-0.0734 0.6614,0 0.1819,0.0734 0.033,0.13345 -0.3307,0.13345 -0.3638,0 -0.5126,-0.06 -0.3307,-0.13345 z"
       id="path1476" />
  </g>
</svg>
