<?xml version="1.0" encoding="UTF-8" standalone="no"?>
<!-- Created with Inkscape (http://www.inkscape.org/) -->

<svg
   width="71.724083mm"
   height="39.187618mm"
   viewBox="0 0 71.724083 39.187618"
   version="1.1"
   id="svg10530"
   inkscape:version="1.2-alpha1 (b6a15bb, 2022-02-23)"
   sodipodi:docname="start_rocket.svg"
   xmlns:inkscape="http://www.inkscape.org/namespaces/inkscape"
   xmlns:sodipodi="http://sodipodi.sourceforge.net/DTD/sodipodi-0.dtd"
   xmlns="http://www.w3.org/2000/svg"
   xmlns:svg="http://www.w3.org/2000/svg">
  <sodipodi:namedview
     id="namedview10532"
     pagecolor="#ffffff"
     bordercolor="#666666"
     borderopacity="1.0"
     inkscape:pageshadow="2"
     inkscape:pageopacity="0.0"
     inkscape:pagecheckerboard="0"
     inkscape:document-units="mm"
     showgrid="false"
     inkscape:snap-text-baseline="false"
     inkscape:zoom="1.8116734"
     inkscape:cx="181.60006"
     inkscape:cy="73.41279"
     inkscape:window-width="1920"
     inkscape:window-height="1011"
     inkscape:window-x="0"
     inkscape:window-y="0"
     inkscape:window-maximized="1"
     inkscape:current-layer="layer1"
     inkscape:deskcolor="#d1d1d1" />
  <defs
     id="defs10527" />
  <g
     inkscape:label="Layer 1"
     inkscape:groupmode="layer"
     id="layer1"
     transform="translate(-171.8399,-83.14849)">
    <path
       style="fill:#ff6754;fill-opacity:1;stroke:none;stroke-width:0.25268px;stroke-linecap:butt;stroke-linejoin:miter;stroke-opacity:1"
       d="m 213.91162,83.14849 -7.73717,7.398742 14.55329,3.059214 11.9037,-5.075739 z"
       id="path56846"
       sodipodi:nodetypes="ccccc" />
    <path
       style="fill:#ff6754;fill-opacity:1;stroke:none;stroke-width:0.25268px;stroke-linecap:butt;stroke-linejoin:miter;stroke-opacity:1"
       d="m 213.91162,122.33611 -7.73717,-7.39875 14.55329,-3.05921 11.9037,5.07574 z"
       id="path60551"
       sodipodi:nodetypes="ccccc" />
    <path
       id="rect64525"
       style="fill:#c3c3c3;fill-opacity:1;stroke-width:1.86573;stroke-linejoin:round"
       d="m 227.27407,95.906993 v 14.645657 l -8.26462,-3.66141 v -3.66142 -3.661409 z"
       sodipodi:nodetypes="cccccc" />
    <path
       style="fill:#ff9d7a;fill-opacity:1;stroke:none;stroke-width:0.25268px;stroke-linecap:butt;stroke-linejoin:miter;stroke-opacity:1"
       d="m 172.17109,102.79427 h 47.92227 c 0.0727,-3.309859 0.0327,-6.135392 0.73498,-9.30485 -21.89565,-7.577786 -35.08144,0.403473 -48.65725,9.30485 z"
       id="path53617"
       sodipodi:nodetypes="cccc" />
    <path
       style="fill:#ff9d7a;fill-opacity:1;stroke:none;stroke-width:0.25268px;stroke-linecap:butt;stroke-linejoin:miter;stroke-opacity:1"
       d="m 172.17109,102.67806 h 47.92227 c 0.0727,3.30986 0.0327,6.1354 0.73498,9.30486 -21.89565,7.57779 -35.08144,-0.40347 -48.65725,-9.30486 z"
       id="path55950"
       sodipodi:nodetypes="cccc" />
    <g
       aria-label="Start!"
       id="text71156"
       style="font-size:12.7613px;line-height:1.25;font-family:'Roboto Slab';-inkscape-font-specification:'Roboto Slab';fill:#ffffff;stroke-width:0.319033">
      <path
         d="m 188.4075,107.15515 q -0.82873,0 -1.59516,-0.24302 -0.76643,-0.24301 -1.46431,-0.74773 v -1.93787 h 0.95336 l 0.20563,1.42692 q 0.40502,0.24924 0.87858,0.38633 0.47357,0.13708 1.0219,0.13708 0.62311,0 1.05306,-0.18693 0.43618,-0.19317 0.66673,-0.52965 0.23055,-0.33647 0.23055,-0.78511 0,-0.41749 -0.1994,-0.73527 -0.19939,-0.31779 -0.66049,-0.55457 -0.45487,-0.24302 -1.24622,-0.42372 -0.93467,-0.21809 -1.5827,-0.57949 -0.64181,-0.36764 -0.97829,-0.88482 -0.33025,-0.52341 -0.33025,-1.19637 0,-0.710345 0.37387,-1.271144 0.3801,-0.560799 1.05306,-0.884817 0.67296,-0.324017 1.57023,-0.324017 0.95336,0 1.6824,0.292862 0.73527,0.286631 1.20884,0.697884 v 1.813252 h -0.95336 l -0.20563,-1.296071 q -0.2804,-0.22432 -0.69788,-0.373866 -0.41749,-0.149547 -1.03437,-0.149547 -0.52341,0 -0.9222,0.186934 -0.39879,0.180702 -0.62311,0.51095 -0.22432,0.330248 -0.22432,0.77889 0,0.39256 0.1994,0.68542 0.20562,0.29286 0.66049,0.51718 0.4611,0.21809 1.22753,0.41125 1.43315,0.35518 2.16842,1.05306 0.74151,0.69165 0.74151,1.71355 0,0.72904 -0.39256,1.29607 -0.39256,0.5608 -1.10914,0.87859 -0.71035,0.31779 -1.67617,0.31779 z"
         id="path19835" />
      <path
         d="m 194.98755,107.13022 q -0.74773,0 -1.19014,-0.43618 -0.43618,-0.4424 -0.43618,-1.40823 v -4.09383 h -1.06552 v -0.90974 h 1.06552 v -1.62632 h 1.22753 v 1.62632 h 1.46431 v 0.90974 h -1.46431 v 4.09383 q 0,0.48603 0.19316,0.71658 0.19317,0.23055 0.51718,0.23055 0.21809,0 0.48603,-0.0374 0.26794,-0.0436 0.41748,-0.0748 l 0.16824,0.80381 q -0.26793,0.081 -0.66049,0.14332 -0.38633,0.0623 -0.72281,0.0623 z"
         id="path19837" />
      <path
         d="m 199.33686,107.15515 q -1.05306,0 -1.60139,-0.51096 -0.54834,-0.51718 -0.54834,-1.45184 0,-0.64181 0.34894,-1.11537 0.35517,-0.47979 1.0219,-0.7415 0.66673,-0.26794 1.59516,-0.26794 h 1.20261 v -0.6605 q 0,-0.61064 -0.37387,-0.94712 -0.36763,-0.33648 -1.04059,-0.33648 -0.42372,0 -0.73527,0.10593 -0.31156,0.0997 -0.56703,0.2804 l -0.13086,0.94089 h -0.94713 v -1.54531 q 0.45487,-0.36764 1.05929,-0.55457 0.60442,-0.19316 1.33969,-0.19316 1.22753,0 1.92541,0.58572 0.69788,0.58572 0.69788,1.67617 v 3.2464 q 0,0.13085 0,0.25548 0.006,0.12462 0.0187,0.24924 l 0.65426,0.0685 v 0.78512 h -1.7634 q -0.0561,-0.27417 -0.0872,-0.49226 -0.0312,-0.21808 -0.0436,-0.43617 -0.35518,0.45487 -0.89105,0.76019 -0.52964,0.2991 -1.13406,0.2991 z m 0.1807,-1.02814 q 0.61065,0 1.11537,-0.29286 0.50472,-0.29286 0.72281,-0.70411 v -1.2213 h -1.24622 q -0.84743,0 -1.27115,0.40502 -0.42371,0.40502 -0.42371,0.90351 0,0.44241 0.27416,0.67919 0.27417,0.23055 0.82874,0.23055 z"
         id="path19839" />
      <path
         d="m 204.19712,107.02429 v -0.78512 l 1.01567,-0.17447 v -4.81664 l -1.01567,-0.17447 v -0.79135 h 2.11234 l 0.10593,0.85989 0.0125,0.11839 q 0.28664,-0.51718 0.70412,-0.81004 0.42371,-0.29286 0.96582,-0.29286 0.19316,0 0.39256,0.0374 0.20563,0.0312 0.29286,0.0623 l -0.16201,1.1403 -0.85366,-0.0499 q -0.48602,-0.0312 -0.81627,0.22432 -0.33025,0.24924 -0.51095,0.67296 v 3.81966 l 1.01567,0.17447 v 0.78512 z"
         id="path19841" />
      <path
         d="m 212.11062,107.13022 q -0.74773,0 -1.19014,-0.43618 -0.43618,-0.4424 -0.43618,-1.40823 v -4.09383 h -1.06552 v -0.90974 h 1.06552 v -1.62632 h 1.22753 v 1.62632 h 1.46431 v 0.90974 h -1.46431 v 4.09383 q 0,0.48603 0.19316,0.71658 0.19317,0.23055 0.51719,0.23055 0.21808,0 0.48602,-0.0374 0.26794,-0.0436 0.41749,-0.0748 l 0.16824,0.80381 q -0.26794,0.081 -0.6605,0.14332 -0.38633,0.0623 -0.72281,0.0623 z"
         id="path19843" />
      <path
         d="m 214.70899,104.04582 v -6.094015 h 1.22753 v 6.094015 z m 0,2.97847 v -1.27114 h 1.22753 v 1.27114 z"
         id="path19845" />
    </g>
    <path
       id="path105391"
       style="fill:#ff6754;stroke-width:2.71899;stroke-linejoin:round"
       d="m 171.84007,102.80847 c -0.0196,-0.69693 1.65989,-1.51896 2.65476,-2.07295 0.67681,-0.37688 3.65358,-2.010169 4.56113,-2.314023 0.36658,-0.122734 0.71299,3.688913 0.71299,4.395313"
       sodipodi:nodetypes="cssc" />
    <path
       id="path119238"
       style="fill:#ff6754;stroke-width:2.71899;stroke-linejoin:round"
       d="m 171.84007,102.68661 c -0.0196,0.69693 1.65989,1.51896 2.65476,2.07295 0.67681,0.37688 3.66182,1.98658 4.56113,2.31402 0.34756,0.12655 0.71418,-3.66338 0.71418,-4.36978"
       sodipodi:nodetypes="cssc" />
    <text
       xml:space="preserve"
       style="font-style:normal;font-variant:normal;font-weight:normal;font-stretch:normal;font-size:12.7613px;line-height:1.25;font-family:'Roboto Slab';-inkscape-font-specification:'Roboto Slab';fill:#ffffff;fill-opacity:1;stroke:none;stroke-width:0.319033"
       x="184.63145"
       y="145.25291"
       id="text18943"><tspan
         sodipodi:role="line"
         id="tspan18941"
         style="font-style:normal;font-variant:normal;font-weight:normal;font-stretch:normal;font-family:'Roboto Slab';-inkscape-font-specification:'Roboto Slab';fill:#ffffff;fill-opacity:1;stroke-width:0.319033"
         x="184.63145"
         y="145.25291">Start!</tspan></text>
  </g>
</svg>
