<?xml version="1.0" encoding="UTF-8" standalone="no"?>
<!-- Created with Inkscape (http://www.inkscape.org/) -->

<svg
   width="61.289509mm"
   height="53.614223mm"
   viewBox="0 0 61.289509 53.614223"
   version="1.1"
   id="svg73599"
   inkscape:version="1.2-alpha1 (b6a15bb, 2022-02-23)"
   sodipodi:docname="warning.svg"
   xmlns:inkscape="http://www.inkscape.org/namespaces/inkscape"
   xmlns:sodipodi="http://sodipodi.sourceforge.net/DTD/sodipodi-0.dtd"
   xmlns="http://www.w3.org/2000/svg"
   xmlns:svg="http://www.w3.org/2000/svg">
  <sodipodi:namedview
     id="namedview73601"
     pagecolor="#ffffff"
     bordercolor="#666666"
     borderopacity="1.0"
     inkscape:pageshadow="2"
     inkscape:pageopacity="0.0"
     inkscape:pagecheckerboard="0"
     inkscape:deskcolor="#d1d1d1"
     inkscape:document-units="mm"
     showgrid="false"
     inkscape:zoom="0.98520767"
     inkscape:cx="-7.6126082"
     inkscape:cy="116.72666"
     inkscape:window-width="1920"
     inkscape:window-height="1011"
     inkscape:window-x="0"
     inkscape:window-y="0"
     inkscape:window-maximized="1"
     inkscape:current-layer="layer1" />
  <defs
     id="defs73596" />
  <g
     inkscape:label="Layer 1"
     inkscape:groupmode="layer"
     id="layer1"
     transform="translate(-32.956136,-98.580732)">
    <path
       sodipodi:type="star"
       style="fill:none;stroke:#00b4ff;stroke-width:4;stroke-linecap:round;stroke-linejoin:round;stroke-miterlimit:4;stroke-dasharray:none"
       id="path73980"
       inkscape:flatsided="false"
       sodipodi:sides="3"
       sodipodi:cx="63.600891"
       sodipodi:cy="133.65681"
       sodipodi:r1="33.076283"
       sodipodi:r2="16.538139"
       sodipodi:arg1="0.52359878"
       sodipodi:arg2="1.5707963"
       inkscape:rounded="0"
       inkscape:randomized="0"
       d="m 92.245792,150.19496 -28.6449,-1e-5 -28.644902,1e-5 14.322452,-24.80721 14.322449,-24.80722 14.322449,24.80721 z"
       inkscape:transform-center-y="-8.2690718" />
    <g
       aria-label="!"
       id="text74657"
       style="font-weight:bold;font-size:34.667px;line-height:1.25;font-family:Comfortaa;-inkscape-font-specification:'Comfortaa, Bold';fill:#00b4ff;stroke-width:0.866676">
      <path
         d="m 63.60089,137.35742 c 0.936009,0 1.768017,-0.79734 1.768017,-1.76802 v -17.09083 c 0,-1.00534 -0.762674,-1.80268 -1.768017,-1.80268 -1.005343,0 -1.768017,0.79734 -1.768017,1.80268 v 17.09083 c 0,0.93601 0.762674,1.76802 1.768017,1.76802 z m 0,6.41339 c 1.282679,0 2.392023,-1.04001 2.392023,-2.39202 0,-1.31735 -1.074677,-2.42669 -2.392023,-2.42669 -1.317346,0 -2.392023,1.10934 -2.392023,2.42669 0,1.35201 1.109344,2.39202 2.392023,2.39202 z"
         id="path23007" />
    </g>
  </g>
</svg>
